<?xml version="1.0" encoding="UTF-8"?>
<svg id="Capa_1" xmlns="http://www.w3.org/2000/svg" version="1.1" viewBox="0 0 1080 1080">
  <!-- Generator: Adobe Illustrator 30.3.0, SVG Export Plug-In . SVG Version: 2.1.3 Build 182)  -->
  <defs>
    <style>
      .st0 {
        fill: #119f46;
      }

      .st1 {
        fill: #03a550;
      }

      .st2 {
        fill: #c3e7d1;
      }

      .st3 {
        fill: #0ba753;
      }

      .st4 {
        fill: #fff;
      }

      .st5 {
        fill: #666665;
      }

      .st6 {
        fill: #04a651;
      }
    </style>
  </defs>
  <g>
    <g>
      <g>
        <path class="st4" d="M1550.68,407.94l-35.11,43.3c-13.98-5.74-21.75-19.77-18.13-34.72l45.01-185.84c7.16-18.21,26.99-26.01,43.95-16.44,10.75,6.07,18.2,18.28,15.07,31.29l-36.78,152.66c-5.43,2.6-10.11,4.94-14.01,9.75Z"/>
        <path class="st4" d="M1641.55,570.62c-17.04-1.67-30.5-17.33-26.87-34.55l28.03-132.72c3.11-14.73,17.9-24.54,32.32-23.53,18.13,1.28,31.79,17.99,27.95,35.99l-28.24,132.44c-3.17,14.85-18.17,23.84-33.2,22.37Z"/>
        <path class="st4" d="M1736.49,407.27c-.12.59.55.79,1.13.65.27-.06.58-.22.46-.64,18.62.29,34.27,17.1,30.15,35.75l-25.61,115.93c-3.19,14.45-15.25,23.79-30.01,24.15-18.39.45-35.12-15.92-30.87-35.06l26.37-118.88c2.9-13.05,16.22-20.76,28.38-21.9Z"/>
        <path class="st4" d="M1570.17,556.18c-23.8-6.33-25.53-35.1-19.34-43.31,15.56-20.61,31.63-39.78,48.18-59.45,12.44-14.78,13.18-35.55-1.82-49.05-5.93-5.34-13.72-8.16-22.19-7.84,1.72-7.48,2.45-14.76,4.85-22.03,4.95-14.99,19.72-23.98,35.39-20.82,13.74,2.77,27.23,16.91,24.01,32.45l-30.54,147.48c-1.73,8.34-7.37,15.42-14.22,19.65-7.25,4.48-15.98,5.13-24.33,2.91Z"/>
        <path class="st4" d="M1504.46,543.7c-11.6-.31-20.47-7.88-23.56-18.55-2.99-10.3-.64-20.85,6.23-29.35l69.56-86.05c4.74-3.81,9.19-6.77,15.09-7.93,14.35-2.83,28.02,5.98,30.89,20.42,1.75,8.77.11,18.13-5.74,25.36l-69.29,85.62c-5.68,7.02-14.1,10.71-23.18,10.47Z"/>
      </g>
      <path class="st4" d="M1832.89,211.24c-3.53,9.26-12.11,18.42-22.11,14.36-2.97-1.2-5.71-4.38-7.2-9.01l-8.38,10.73c-1.42,1.82-4.06.36-5.58-.61-1.34-.85-3.94-3.5-2.35-5.72l23.39-32.65c1.32-1.84,4.65-.42,5.84.43,1.77,1.26,2.75,3.07,2.5,5.93,4.86-.58,9.09.78,11.95,4.18,2.81,3.34,3.63,7.92,1.94,12.36ZM1815.79,216.61c4.39-2.06,7.62-6.77,7.85-11.37.13-2.61-2.28-4.37-3.83-4.78-2.29-.6-4.91-.57-6.34,1.4l-4.05,5.61c-1.74,2.41-1.52,4.9-.23,6.93,1.23,1.93,3.81,3.51,6.59,2.2Z"/>
      <path class="st4" d="M1933.63,367.58c.04-.4.21-.64-.7-.82-4.12,1.13-7.35,4.17-12.23,5.04-3.03.54-6.56-6.62-3.94-8.56,11.85-6.92,24.36-11.98,36.74-18.05,2.57-1.26,4.55,1.84,5.16,3.29.81,1.92.82,4.44-1.05,6.13,4.99,1.54,7.68,5.17,8.76,9.37,1.13,4.4-.81,8.91-4.41,11.99-7.08,6.06-18.97,9.57-25.06,3.09-2.72-2.89-3.72-7-3.27-11.47ZM1945.33,372.39c3.36.07,14.04-3.58,11.74-10.46-.89-2.66-4.08-4.71-7.07-3.73-5.76,1.9-10.37,4.05-10.12,8.97.13,2.6,1.85,5.15,5.44,5.22Z"/>
      <path class="st4" d="M1951.41,406.3c-5.45-2.98-8.66-8.15-7.21-14.11,1.04-4.3,4.95-6.3,8.33-7.07,9.45-2.15,12.6,8.92,16,14.29,8.83-2.24-4.65-13.48-1.56-17.42.81-1.03,4.05-1.87,5.39-.47,4.24,4.45,13.59,21.99,1.28,27.39-6.01,2.64-12.19,4.74-18.46,6.93-2.58.9-4.17-.86-4.79-2.88-.68-2.25-.88-4.06,1.02-6.66ZM1958.7,395.28c-1.71-1.86-5.28-1.12-5.96.8-.95,2.67,1.05,5.17,2.77,6.21,1.48.9,5.72,1.45,6.15-.5.47-2.11-1.51-4.93-2.96-6.51Z"/>
      <path class="st4" d="M1837.89,243.79c-3.75-1.87-7.88-1.8-10.49-5.16-3.23-4.15-3.07-9.53.19-13.32,7.04-8.19,15.72-1.21,22.36,3.72,7.26-6.85-13.08-10.44-9.35-15.59,4.71-6.51,15.69,5.05,19.02,9.38,2.65,3.45,2.29,8.12-.36,11.59-4.1,5.39-8.64,10.31-13.21,15.34-1.67,1.84-4.27.11-5.81-.47-1.91-.71-1.45-3.87-2.35-5.49ZM1845.13,234.3c-.32-2.06-6.57-6.77-9.55-3.38-.9,1.02-1.38,2.67-.57,4.01,1.19,1.97,3.59,2.52,5.56,2.52,1.49,0,4.89-1,4.55-3.15Z"/>
      <path class="st4" d="M1968.49,588.4c.72.33,1.19-.25.02-.76-2.67-4.7-3.61-10.43.07-15.16,2.35-3.01,6.51-3.62,10.47-2.91,3.13.55,6.47,3.42,7.52,7.37,1.15,4.35-.19,8.63.38,12.98,10.11,2.93.56-19.09,9.35-15.97,6.02,2.13,2.84,15.8,1.15,20.35-1.84,4.97-6.32,7.07-11.47,6.38l-17.96-2.41c-1.7-.23-2.51-1.38-3.22-2.3-1.32-1.7.52-7.6,3.69-7.56ZM1979.92,580.71c-1.16-2.46-4.78-2.29-5.94-.43-1.34,2.14-.66,4.85.55,6.46.96,1.28,4.01,3.35,5.32,2.15,1.44-1.95,1.19-5.8.07-8.18Z"/>
      <path class="st4" d="M1782.32,171.4c3.24-3.2,9.19,1.46,9.41,1.97.43.99.62,2.54-.43,3.45l-32.26,27.87c-2.82,2.43-9.77-.51-9.44-3.99,1.66-4.16,7.04-5.4,9.31-8.96l5.2-31.28c.37-2.22,4.26-.36,5.52.33,6.64,3.67,2.08,8.93-.21,20.64-.12.64,1.51,1.21,1.91.81l10.98-10.84ZM1769.76,183.35c0-.22-.18-.4-.4-.4s-.4.18-.4.4.18.4.4.4.4-.18.4-.4Z"/>
      <g>
        <path class="st4" d="M1971.43,519.18c9.09-3.2,24.58,1.46,23.02-6.61-1.64-8.45-13.14-3.53-23.26-4.51-2.11-.2-2.24-4.24-2.36-5.82-.19-2.47,1.35-4.35,3.87-4.4,8.68-.18,17.2-1.23,25.95-.94,2.56.09,2.99,3.28,3.1,4.85.16,2.35-1.14,3.65-3.3,5.44,4.42,3.82,5.91,10.11,3.13,15.32-1.65,3.09-5.64,4.7-9.19,4.84-6.95.27-13.59,1.58-20.5.55-2.41-.36-2.89-7.86-.45-8.72Z"/>
        <path class="st4" d="M1978.49,472.48c-12.63,2.12,1.9,19.04-6.37,19.11-1.34.01-3.37-.47-4.15-2.22-2.91-6.56-4.22-18.9,2.52-24.09,5.76-4.43,14.25-5.53,20.9-2.56,5.38,2.41,7.29,8.03,7.94,13.34,1,8.05-3.81,14.12-11.83,15.7-2.07.41-5.79.79-6.24-2l-2.77-17.28ZM1986.33,481.98c4.75-.02,5.99-3.05,5.87-6.26-.12-3.14-5.11-6.28-6.63-3.65-1.45,2.96,1.09,7.06.77,9.91Z"/>
      </g>
      <path class="st4" d="M1298.4,754.97l20.87,24.35,10.91,11.13c5.94,6.06,12.12,11.07,18.49,16.44l15.08,12.7c19.43,16.37,41.52,27.21,61,42.83-6.17-.96-10.96-3.61-16.05-6.62-41.02-24.26-77.97-54.28-105.99-93.09-1.91-2.65-3.97-4.92-4.32-7.74Z"/>
      <path class="st4" d="M1886.7,280.85c-4.79,3.76,4.18,6.7,2.1,10.39-.87,1.54-2.78,2.53-4.8,2.07-2.79-.65-4.25-3.24-6.07-5.32-3.32-3.79-4.01-9.44-.1-13.02l11.92-10.91c-1.65-1.64-2.59-3.08-2.51-4.63.1-1.78,1.28-2.93,2.73-3.3,2.08-.53,3.66.72,5.11,2.71l8.05-5.38c2.52-1.68,7.26,3.45,6.36,6.53-.96,3.28-4.79,4.36-6.79,7.04.72,2.22,2.97,3.52,4.15,5.45s.37,4.17-.91,5.01c-4.55,3-6.51-4.23-9.47-4.6-3.79,1.98-6.45,5.38-9.76,7.97Z"/>
      <path class="st4" d="M1914.4,319.7c-1.61,6.21,9.66,11.21,3.78,14.25-5.13,2.65-8.1-2.85-11.11-7.66-4.83-7.73-2.11-16.45,5.37-21.2,4.89-3.1,10.6-5.46,16.31-2.9,5.36,2.41,13.29,13.07,10.17,17.04-1.29,1.65-4,2.48-5.59.43-1.91-2.47-2.63-7.02-6.36-7.89-4.61-1.07-11.31,3.03-12.57,7.92Z"/>
      <g>
        <path class="st4" d="M1898.12,797.31c4.24,5.32-5.28,14.22-9.55,17.62-3.99,3.18-9.15,2.94-13.15-.38-4.95-4.12-9.81-8.4-14.4-13-1.85-1.85-.27-4.48.75-5.83,1.48-1.95,3.47-1.9,6.36-1.85-.2-5.1,1.83-9.65,6.09-11.94,4.12-2.22,8.6-1.11,11.88,1.88,7.56,6.89.49,15.79-4.56,21.91.81,2.26,4.88,2.08,6.38,0l6.29-8.7c.99-1.37,3.22-.57,3.91.3ZM1879.74,791.05c-1.18-.8-2.88-.94-4.1-.04-1.83,1.34-2.41,3.62-2.3,5.41.1,1.48,1.18,4.75,3.29,4.39,2.01-.35,7.09-7.07,3.1-9.76Z"/>
        <path class="st4" d="M1925.97,723.57c-.48,6.68,8.22,7.62,17.01,14.22,1.69,1.27.69,4.02,0,5.34-.81,1.57-2.78,4.31-5.27,3.08-8.08-4-15.64-8.62-23.33-13.19-2.04-1.21-.69-4.46-.07-5.92.84-1.95,2.57-2.74,5.42-3.18-.51-5.32.28-10.61,4.74-13.8,2.99-2.13,7.26-1.62,10.59.06,6.07,3.07,11.72,6.46,17.54,10.05,1.96,1.2,1.01,4.29.23,5.76-5,9.47-19.16-9.59-25.08-5.97-.88.54-1.65,1.72-1.79,3.56Z"/>
        <path class="st4" d="M1907.53,770.64c-7.97-3.87,4.14-13.42,7.26-20.05-1.93-1.96-5.06-1.68-7.28.17-5.62,4.7-5.35,12.87-10.04,9.77-5.34-3.53,2.13-12.55,5.37-15.89,5.54-5.71,13.39-6.02,19.88-1.58,4.64,3.16,9.15,7.38,9.06,13.59-.11,6.83-4.93,13.74-11.31,16.26-4.51,1.78-8.98-.35-12.94-2.28ZM1914.28,763.1c3.4,3.05,6.83,1.72,8.39-.91,1.76-2.96.91-6.2-2.46-7.82-2.21,2.93-4.11,5.24-5.93,8.73Z"/>
        <path class="st4" d="M1970.09,630.49c-8.56-4-9.07,10.47-9.75,13.25-.4,1.64-2.62,1.78-3.79,1.44-6.55-1.87-.81-16.29,2.39-20.34,4.56-5.76,11.88-5.75,18.21-3.84,9.42,2.85,13.74,11.05,10.82,20.18-2.48,7.72-8.55,12.18-17.17,10.29-1.3-.28-3.2-.35-4.07-1.29-1.09-1.18-1.22-2.78-.96-4.49l4.31-15.2ZM1973.56,642.19c4.38,1.44,7.24-.61,7.78-4.08.47-3.03-1.17-5.67-4.96-6.25-1.19,3.42-2.25,6.73-2.81,10.33Z"/>
        <path class="st4" d="M1972.62,682.36c-.98,1.32-3.61,1.18-4.68.84s-2.29-2.33-1.69-3.83c.95-2.33,6.41-10.37,3.5-12.09-3.78-2.23-4.7,5.13-10.47,9.42-3.38,2.51-8.05,1.77-11.4-.51-7.58-5.15-1.82-18.24,2.53-24.17.96-1.31,2.97-1.29,3.99-1.22,1.43.11,3.64,1.26,3.03,3.3-.71,2.39-7.57,11.78-3.42,13.29,4.82,1.77,7.42-16.31,20.27-9.71,8.5,4.37,3.06,18.33-1.66,24.67Z"/>
        <path class="st4" d="M1956.45,698.4c-2-4.47-8.88-7.64-13.3-6.21-6.19,2.01-3.64,13.57-10.18,10.62-5.15-2.33-.63-10.82,1.56-14.52,4.32-7.29,12.4-8.87,19.91-5.44,5.65,2.59,11.21,6.75,11.39,13.65.14,5.23-4.9,19.97-11.62,15.79-4.67-2.91,4.49-8.86,2.24-13.89Z"/>
        <path class="st4" d="M1922.32,797.63c-1.9,2.57-4.48,3.54-6.95,1.55l-31.04-24.93c-1.89-1.51.13-4.55.88-5.77.84-1.36,3.61-4.17,5.73-2.49l32.31,25.46c2.01,1.58.22,4.6-.94,6.17Z"/>
      </g>
      <path class="st4" d="M1772.04,869.31c-7.88,3.35-34.05,13.87-42,12.91,12.89-3.88,24.91-9.23,37.34-14.6,4.02-1.74,7.33-3.87,11.19-5.82,18.64-9.4,36.33-19.73,53.87-31.32,3.91-2.58,8.21-4.11,12.84-5.86-5.94,7.78-14.09,11.94-22.01,17.01-16.5,10.57-33.18,20.01-51.23,27.68Z"/>
      <path class="st4" d="M2013.23,564.86c-13.82.55-26.64-1.84-39.94-2.11-1.53-.03-3.04-.81-3.69-1.68-1.42-1.9-.52-7.24.68-8.36.64-.6,1.93-1.16,3.38-1.05l40.04,3.25c3.43.28,3.16,9.81-.47,9.95Z"/>
      <path class="st4" d="M1982.63,435.61c-2.01-5.37-6.87-8.68-12.36-7.17l-9.87,2.7c-1.44.4-2.74.3-3.8-.5-1.48-1.12-4.06-8.24-.11-9.36l24.76-6.97c2.68-.75,4.4,1.29,5.03,3.53.43,1.54.74,2.75.17,4.37-.36,1.04-1.84,1.79-3.58,2.7,3.1,2.56,6.59,5.07,7.6,9.27.53,2.18-1.23,3.53-2.54,3.85-2.03.49-4.41-.02-5.31-2.42Z"/>
      <path class="st4" d="M1875.21,243.05c-1.05-.07-1.06,1.09.02.73,3.83-.11,8.1,1.02,10.99,4.03,1.47,1.53.45,4-.81,5.05-1.56,1.3-3.78,1.27-5.65-.19-4.07-3.17-9.77-3.96-13.57-.28l-8.82,8.53c-2.57,2.49-7.53-2.88-7.74-4.74-.2-1.72.5-3.03,1.79-4.31l17.46-17.28c2.62-2.6,7.45,2.52,7.68,4.28.19,1.45-.43,2.67-1.34,4.18Z"/>
      <path class="st4" d="M1918.96,292.59c-7.28,4.87-13.31,11.07-21.21,15.43-3.05,1.68-8.41-5.43-6-7.9,6.35-6.52,14.12-10.98,21.1-16.67,3.29-2.68,7.76,3.76,7.88,5.37.09,1.23-.42,2.87-1.77,3.77Z"/>
      <path class="st4" d="M1948.78,336.95c-7.74,4.67-15.16,9.14-23.02,13.16-2.28,1.17-4.31-1.18-5.02-2.44-.87-1.54-2.66-5.18-.51-6.45l22.21-13.11c1.25-.74,2.74-.84,3.72-.43,1.91.79,6.06,7.2,2.62,9.28Z"/>
      <path class="st4" d="M1930.1,276.65c1.33,1.84,2.4,3.47,1.67,5.36-.6,1.56-2.27,2.65-4.01,2.93-1.96.3-3.09-1.25-4.34-2.8-1.92-2.38-2.35-4.83-.34-6.58,2.34-2.04,5.06-1.63,7.02,1.1Z"/>
      <path class="st4" d="M1961.35,323.57c.98,2.05,1.64,3.8.4,5.81-.69,1.12-2.35,1.75-4.52,1.79-1.67.03-2.29-1.62-3.4-3.36-1.58-2.5-1.73-5.06.52-6.56,2.65-1.76,5.43-.94,6.99,2.32Z"/>
      <path class="st4" d="M1274.01,537.04v-28.52c.34-.1.65.32.65.86v26.8c0,.54-.31.96-.65.86Z"/>
      <path class="st4" d="M1776.81,789.09c-.7-.1-1.34-.47-1.7-1.09-1.59.51,8.31-7.86,7.37-3.17-.58,2.86-4.69,2.73-5.66,4.26Z"/>
      <path class="st4" d="M1401.25,275.64c-.04-.75,0-1.49.12-2.23.53-.33.84-1.13,1.33-1.06.76.1.69.37.87.69.25.45.07,1.56-.56,1.83l-1.76.77Z"/>
      <g>
        <path class="st4" d="M1539.78,943.49c3.12-.84,3.34-4.21,5.47-6.23.32,2.94-.88,5.45-1.68,8.7l-44.79-.13c1.19-1.67,2.91-.54,3.89-1.3,3.36-2.59-2.89-14.16-4.08-19.27l-17.59-.08c-1.33,4.91-6.28,15.51-4.43,18.71.64,1.11,2.22.53,3.37,1.77-4.3.43-7.8.77-12.22-.08,3.24-1.32,5.38-3.18,6.48-6.53l14.87-44.97c.4-1.22,4-1.1,4.39-.02l16.78,47.15c.67,1.89,2.47,3.57,4.06,3.49,1.45-.08,3.61-1.89,3.62-3.87l.23-39.42c.02-4.05-2.2-5.93-5.98-6.91,6.46-.55,11.99-.6,17.6-.05-2.79,1.31-5.7,1.61-5.71,4.63l-.03,40.4c0,6.69,12.56,4.87,15.75,4.01ZM1497.46,922.2l-8.1-22.8-7.46,23.29c5.65-.19,10.53.72,15.56-.49Z"/>
        <path class="st4" d="M1705.78,916.12c0,17.51-14.2,31.71-31.71,31.71s-31.71-14.2-31.71-31.71,14.2-31.71,31.71-31.71,31.71,14.2,31.71,31.71ZM1697.17,926.65c1.67-7.76,1.55-15.18-.4-22.49-2.89-10.84-12.26-17.6-23.1-17.45-10.77.15-19.8,7.27-22.43,18.25-1.87,7.8-1.87,15.84.37,23.52,3.13,10.76,12.64,17.49,23.35,17.11,10.94-.39,19.76-7.53,22.22-18.95Z"/>
        <path class="st4" d="M1457.84,955.19c-11.12,4.13-17.21-5.42-18.95.87.1-3.58-.43-7.06.27-11.47,1.94,4.38,5.17,10.69,12.22,9.02,3.72-.88,7.44-4.52,7.45-9.22l.11-56.12c0-2.93-3.78-3.31-5.89-4.94,6.6-.41,13.12-.35,19.77.09-4.45,1.37-7.03,2.88-7.04,7.13l-.11,52.89c-.01,5.1-3.2,10.03-7.83,11.75Z"/>
        <path class="st4" d="M1605,906.05c-4.23,8.84-4.18,19.31-.05,27.76,4.4,9,13.76,12.97,23.18,10.72,4.29-1.03,8.28-3.05,11.6-5.88.96.37.73,1.56-.11,2.31-9.98,8.81-25.21,9.07-35.61.11-10.21-8.8-11.52-24.05-4.95-35.02,7.03-11.74,20.82-16.13,34.04-12.04,2.51.77,5.16,2.06,7.71-.23.69,3.67.95,7.43-.53,12.04-1.64-4.36-3.89-7.02-7.87-8.96-10.16-4.96-22.19-1.67-27.41,9.21Z"/>
        <path class="st4" d="M1563.74,946.67l-.1-1.8c-.21-3.65-.74-7.36.58-11.13,1.63,5.11,4.18,8.78,7.71,10.28,4.63,1.95,9.82,1.96,13.52-.92,2.64-2.06,3.31-5.41,2.94-8.46-1.49-12.42-27.08-11.12-23.39-30.18.98-5.04,5.34-9.74,11.26-10.99,9.54-2.01,9.32,2.52,14.85-.19.18,3.78.83,7.29-.49,11.13-1.84-5.38-4.85-9.22-9.89-9.47-4.83-.24-9.4,2.28-10.56,7.21-3.22,13.76,11.36,14.16,20.04,22.83,5.94,5.94,3.93,15.97-3.27,20.17-6.48,3.77-14.12,2.63-20.69-.85-1.57.49-1.2,3.34-2.53,2.39Z"/>
        <path class="st4" d="M1562.22,945v.94c-5.77-.08-11.71.53-17.5-.35,1.8-1.15,3.53-.46,4.77-1.8.95-1.04,1.53-2.34,1.52-4.34l-.22-40.92c-.01-2.78-3.5-2.94-5.27-4.08,6-.55,11.34-.32,16.77.02-3.37,1.26-5.48,2.14-5.47,5.4l.1,41.07c0,2.94,2.99,4.29,5.3,4.06Z"/>
        <path class="st4" d="M1563.64,944.86l.1,1.8c-.58-.03-1.12-.36-1.52-.73v-.94l1.42-.14Z"/>
      </g>
      <path class="st4" d="M1738.08,407.27c.12.42-.19.57-.46.64-.58.14-1.25-.05-1.13-.65.85-.08,1.26.07,1.58,0Z"/>
      <g>
        <g>
          <path class="st4" d="M1325.06,244.73c4.36-2.77,7.44-6.41,11.1-9.75,2.44-2.22,5.06-.51,6.52,1.58,1.84,2.65-.04,4.55-2.17,6.58l-13.05,12.44c-1.53,1.46-4.16,2.79-6.01.92-3.94-3.98-7.69-7.96-11.57-12.03l-14.3-14.98c-1.14-1.19-1.77-2.6-1.64-4.09.1-1.2,1-2.48,2.23-3.54,4.58-3.96,8.81-7.94,13.05-12.28,1.84-1.88,4.1-3.07,6.57-1.52,7.62,4.79-5.77,11.9-9.11,16.34,1.25,2.37,3.09,4.34,5.47,6.38,5.65-2.76,11.5-14.36,16.2-7.78,3.55,4.97-6.36,8.96-9.9,14.38l6.61,7.35Z"/>
          <path class="st4" d="M1390.05,190.84c-3.62-10.32,9.23-14.75,11.43-17.75,1.29-1.77-2.91-3.2-4.71-2.27-6.25,3.23-10.5,9.88-13.15,5.15-.57-1.02-1.16-3.03.16-4.47,5.51-6,19.75-15.45,26.36-5.22,3.66,5.67,6.97,11.62,10.04,17.77,1.08,2.16-1.06,3.92-2.23,4.71-1.78,1.2-4.19,1.57-6.76.05-2.25,5.96-7.19,10.35-13.72,9.2-4.13-.73-6.42-4.32-7.42-7.19ZM1401.79,189.28c2.8-.15,4.38-2.35,4.91-3.85.58-1.65.43-5.75-1.3-6-1.48-.22-8.01,2.9-6.76,7.48.27.99,1.19,2.49,3.15,2.38Z"/>
          <path class="st4" d="M1363.68,223.16c-2.86,3.98-13.22,14.04-18.24,9.13-5.62-5.49,13.96-8.25,9.06-14-2.5-2.93-14.58,9.41-21.47-.51-6.24-8.98,5.27-17.53,12.94-21.29,1.65-.81,3.46.37,4.43,1.33,5.26,5.18-10.98,7.67-9.09,13.1,1.87,5.4,13.13-9.12,21.56.58,2.61,3,3.79,7.52.81,11.65Z"/>
          <path class="st4" d="M1379.22,200.57c2.84,3.71,6.56-4.07,10.16-1.37,1.08.81,2.28,3.13,1.21,4.94-1.89,3.19-5.75,5.42-9.23,6.7-9.78,3.6-13.9-11.61-19.22-15.58-1.68.57-3.41,1.9-4.58,1.64-2-.45-2.78-1.65-3.04-3.24-.38-2.27,1.32-2.95,2.59-4.62,1.79-2.35-3.84-5.19-3.83-9.59,0-2.39,5.49-7.01,8.73-3.86,1.75,1.7,2.46,4.62,4.69,6.01,2.57,1.61,6.07-5.69,10.05-2.19,1.4,1.24,2,3.56.22,5.22-1.8,1.67-3.97,2.55-5.62,4.35,2.69,4,5.01,7.85,7.87,11.58Z"/>
          <path class="st4" d="M1431.39,182.23c-2.92,1.31-5.42.92-6.69-1.88l-10.09-22.22c-.59-1.29-.35-2.94.29-4.06.51-.9,4.58-3.07,7.06-2.33.98.29,1.56,1.56,2.9,2.94,1.93-3.71,3.98-7.59,8.33-8.95,2.16-.67,3.84,1.21,4.31,2.9.57,2.01-.74,3.81-2.67,5.03-4.08,2.58-6.93,7.26-4.96,11.85l4.8,11.21c1.16,2.7-.81,4.39-3.28,5.5Z"/>
          <path class="st4" d="M1456.53,161.82c.44,4.51,1.14,14.89-2.19,17.47-1.24.96-5.02,2.53-5.99.36-1.98-4.43-2.41-10-2.61-14.92-.14-3.34,7.81-5.22,8.23-5.23.94-.02,2.43.87,2.57,2.31Z"/>
        </g>
        <g>
          <path class="st4" d="M1663.86,153.47c-6.46,3.88-15.56,2.47-18.4-5.12-3.63-9.69.95-26.69,12.99-26.54,3.86.05,7.06,1.85,10.32,5.47,3.34-6.17.51-17.09,8.37-15.67,1.48.27,3.06.53,3.8,1.31.98,1.05,1.34,2.66.99,4.3l-8.29,38.53c-.56,2.6-3.76,2.25-5.31,2.08-2.4-.27-3.59-1.42-4.45-4.36ZM1665.8,144.29l1.36-6.17c.68-3.1-.64-5.96-2.87-6.99-2.63-1.21-5.8-.93-7.39,1.6-2.13,3.4-3.12,7.77-2.26,11.63.64,2.88,3.03,4.04,5.4,3.99,2.35-.05,5.07-.98,5.75-4.06Z"/>
          <path class="st4" d="M1523.81,164.44c.31,3.25-8.08,4.55-9.47,1.61l-6.86-41.25c-.27-2.3,3.31-2.9,4.77-3.25,1.76-.43,3.81.46,5.43,2.32,3.4-3.94,7.44-5.73,12.36-5.18,3.97.44,7.63,3.51,9.59,7.82,3.25,7.15,4.04,18.99-3.4,23.93-4.31,2.86-9.05,2.03-13.72.31l1.31,13.7ZM1531.78,138.74c.03-3.73-.66-7.59-2.98-10.28-1.68-1.95-4.43-1.9-6.41-.88-5.22,2.67-3,7.34-2.23,12.68.5,3.46,3.66,5.07,6.79,4.79,2.72-.24,4.8-2.76,4.83-6.31Z"/>
          <path class="st4" d="M1497.4,155.96c-.17-.24,0-.72-.13-1.11-.22-.67-.69-.26-1.18.33-.21.25.02.54.38.84-3.92,3.95-8.88,7.46-14.93,5.09-6.06-2.37-8.19-11.03-3.99-16.05,3.65-4.36,9.14-5.34,14.29-6.98-3.25-11.42-19.38,8.36-18.89-3.73.07-1.79,1.33-3.1,3.25-3.96,7.65-3.42,21.89-8.2,25.14,3.39,1.82,6.49,3.84,12.98,5.02,19.61.36,2-2.31,3.34-3.59,3.63-1.61.36-4.07.86-5.38-1.06ZM1486.73,153.17c2.94,1.02,5.27-.76,6.36-2.47.83-1.32,1.62-5.29,0-5.89-2.32-.87-5.21,1.05-6.98,2.41-1.93,1.48-1.88,5.09.62,5.95Z"/>
          <path class="st4" d="M1690.75,150.32c-3.07,12.26,18.06,6.55,14.61,13.69-3.19,6.59-16.89.25-20.9-3.41-5.08-4.63-4.53-11.63-2.81-17.54,2.78-9.56,11.21-13.46,20.43-10.49,7.95,2.56,12.4,9.41,9.84,18.06-.34,1.15-.59,2.77-1.48,3.52-1.19,1.01-3.01,1.13-4.71.62l-14.98-4.45ZM1702.91,147.03c1.61-4.41-.54-7.32-4.03-7.81-3.05-.43-6,1.37-6.21,4.9,3.69,1.04,6.74,2.35,10.23,2.91Z"/>
          <path class="st4" d="M1632.04,150.96c-6.65-1.75-1.19-10.94-1.77-22.35-.14-2.73-2.68-3.62-4.96-3.27-7.82,1.19-4.06,11.7-7.31,21.9-.91,2.85-9.08,2.4-9.21-.9-.37-9.49,1.51-18.76,2.7-28.09.31-2.41,4.15-1.95,5.61-1.83,1.88.14,3.05,1.45,4.6,3.68,5.1-3.62,11.96-3.91,16.45.36,4.57,4.34,1.16,19.87.6,27.4-.13,1.72-1.51,2.56-2.55,3.33-1.25.93-2.46.22-4.15-.22Z"/>
          <path class="st4" d="M1589.63,140.96c3.84.8,7.07-.5,10.4-.39,1.57.05,2.19,2.1,2.08,3.12-.13,1.16-.73,3.27-2.38,3.76-8.61,2.57-22.89,1.52-25.51-10.56-1.32-6.07-.73-13.06,3.33-17.88,3.2-3.8,8.51-4.45,13.19-4.42,8.5.06,13.93,6.3,14.09,14.64.04,2.25-.09,5-3.06,5.35-5.75.69-11.41-.06-17.56-.21-.58,3.25,1.88,5.83,5.43,6.57ZM1594.87,128.38c.63-5.21-2.33-6.85-6.13-6.63-2.41.13-5.52,3.28-4.06,5.95,2.78.88,6.86.49,10.19.68Z"/>
          <path class="st4" d="M1743.36,153.01c-2.19,5.89-12.9-3.63-18.15,7.47-1.74,3.68-2.72,7.77-4.79,11.21-1.29,2.14-4.03,1.1-5.86.54-2.65-.81-4.35-2.97-3.21-5.81l9.54-23.75c1.3-3.23,7.86-.68,8.86.95.54.89.45,2.96.51,4.85,3.98-1.05,7.9-2.12,11.8-.33,1.87.86,1.96,3.13,1.31,4.88Z"/>
          <path class="st4" d="M1556.53,120.37c.11.45.39,1.08,1.07.05,2.69-2.75,6.49-5.35,10.84-4.58,1.94.34,2.39,3.17,2.04,4.56-.4,1.56-2.08,2.91-3.86,3.22-13.94,2.4-6.99,16.68-9.02,23.37-.87,2.88-8.86,3.25-9.5.04-1.81-8.94-1.26-17.77-2.3-26.63-.33-2.82,2.38-3.74,4.46-3.99,3.26-.39,5.48.56,6.28,3.95Z"/>
          <path class="st4" d="M1497.4,155.96l-.93.06c-.37-.3-.59-.59-.38-.84.49-.59.96-1.01,1.18-.33.13.39-.04.87.13,1.11Z"/>
          <path class="st4" d="M1556.53,120.37l1.07.05c-.69,1.03-.96.39-1.07-.05Z"/>
        </g>
      </g>
      <path class="st4" d="M1968.49,588.4l.02-.76c1.17.52.71,1.09-.02.76Z"/>
      <path class="st4" d="M1875.22,243.78c-1.07.36-1.07-.8-.02-.73l.02.73Z"/>
      <path class="st4" d="M1933.63,367.58c-.49.11-.64-.44-.7-.82.9.19.74.43.7.82Z"/>
      <g>
        <path class="st4" d="M1865.68,623.32c-.12-.62.24-1.31-.37-2.37-.9.61-.4,1.63-.41,2.45-1.95-1.64-1.82-4.53-3.3-6.82-3.38-5.22-8.51-8.75-14.59-8.35-5.66.37-11,3.8-13.48,9.32-3.99,8.89-1.37,18.86,6.93,23.79l10.92,6.48c5.4,3.2,11,6.24,15.24,11.08,4.76,5.42,5.54,12.99,3.22,20.3-1.77,5.57-7.13,11.38-13.97,13.5-16.52,5.13-28.48-3.97-30.96-2.87-1.15.51-1.34,4-2.04,4.13-.47.09-1.92-.16-2.18-.79-1.13-2.67.11-5.55-.58-8.84-8.72,8.26-20.18,11.7-32.08,9.45-11.09-2.1-20.28-8.32-26.04-18.15-.45-.77-.23-1.99-1.54-2.36-.49.88-.01,1.41-.01,2.54l-.03,18.21c-2.65.39-3.53-1.58-4.99-3.21l-47.11-52.58-.06,46.78c0,4.54,3.4,6.12,7.97,6.8-4,2.05-7.77.2-12.78,1.14l9.81,28.15c1.45,4.16,3.95,5.56,8.51,7.73-2.47.38-26.02,1.49-23.58-1.07.79-.83,4.56-.22,5.88-1.83.87-1.06,1.25-2.95.63-4.71l-19.72-55.95-22.41-.05c-2.38,6.27-4.21,12.5-6.2,19.08-.58,1.9-.71,4.37.66,5.8,1.3,1.37,3.65-.17,4.57,2.63-5.94-.5-11.15.98-17.73-.75,4.88-2.22,7.53-4.53,9.07-9.17l19.57-58.84c1.8-.55,5.57-1.05,6.4.71l23.06,64.27c2.46-2.54,2.56-5.34,2.55-8.09-.09-15.46.78-30.8-.34-46.16-.38-5.18-7.29-7.38-11.05-9.72,3.92-.73,10-1.46,13.91.04l49.23,54.57.25-45.86c.01-2.53-.78-4.73-2.15-6.34-1.57-1.84-4.04-.57-6.49-2.82,6.96.06,13.32-1.11,19.85.66-4.4,1.53-7.21,2.81-7.23,7.08l-.04,9.2c-.07.4-.85,2.05.76.01,4.02-6.42,8.85-11.75,16.08-15.28,15.28-7.47,32.73-3.74,45.07,8.43-2.23-15.46,6.87-26.79,21.03-29.05,6.13-.98,12.92.64,18.88,1.92.76-.96,3.81-3.61,4.32-1.67,1.13,5.21.04,11,.48,16.7.05.68-.73.89-1.37.78ZM1792.27,691.46c12.08.42,21.77-5.93,25.91-16.62,4.78-12.34,4.4-34.44-8.1-44.39-6.94-5.52-15.7-6.76-24.43-3.77-19.79,6.78-21.72,34.39-14.8,49.95,3.87,8.72,11.68,14.5,21.42,14.83ZM1683.52,661.82l-10.32-29.04-9.76,29.01c6.75.4,12.97.35,20.08.03ZM1861.17,675.21c-.25-11.64-10.74-16.31-19.16-21.07-4.97-2.73-9.47-5.37-13.76-9.38,4.31,11.55,3.23,23.17-3.13,33.24,3.66,9.57,13.02,14.05,22.9,12.56,7.89-1.19,13.34-6.58,13.15-15.36Z"/>
        <path class="st4" d="M1592.45,713.69l-1.34-3.2c-.79,1.28-.2,2.68-.41,3.99-.11,4.05-3.08,10.23-.54,12.71l3.14,3.08h-26.05s-5.33-9.88-5.33-9.88c-.73-1.36-2.79-3.15-4.53-2.55-1.12,3.05-.46,6.84-.27,10.04,1.25.88,2.47.65,2.86,2.34-4.93.13-9.3.44-14.06-.23.73-2.2,3.75-.77,3.93-2.46.39-3.61.86-20.69-.53-22.87-.37-.59-1.37-.83-2.09-.26.85,5.29-2.48,9.78-8.06,10.86-2.72.53-5.44-.27-8.06.56.11,4.33-.95,10.55,1.22,12.39.61.52,2.39-.32,3.19,1.87-5.37.57-10.32.21-16.34.19.25-2.47,2.79-1.71,3.86-3.5l.09-26.92-4.25-3.02c6-1.04,11.93.12,17.96-.49,4.69-.48,7.45,2.74,9.88,5.68l17.64.74c3.09.13,5.5,2.96,6.14,5.39.87,3.32-.3,6.16-3.98,8.21,3.05,3.99,4.33,8.75,8.66,12.4,1.55-8.42.2-15.91.75-23.68-1.14-1.17-2.65-.82-3.05-2.55h21.73s7.78,15.74,7.78,15.74l6.76-15.54c3.09-.49,6.08-.5,9.46.04-.49,1.53-1.77,1.35-2.89,2.4l1.67,21.18c.14,1.84,1.69,2.56,3.01,2.39,1.49-.19,2.23-1.32,2.23-3.16v-19.86c-.01-1.65-2.24-1.19-2.91-3.07l34.39-.18c2.84-.01,5.78,1.71,7.34,3.87,2.63,3.63,1.09,8.35-3.24,10.05,4.48,5.26,4.89,9.43,10.01,13.79-2.86-.11-6.56,1.04-9.15-.31-.96,1.14-7.69-16.97-9.86-11.66-1.07,2.62-.4,6.11-.25,9.05.08,1.52,2.52,1.03,2.94,2.97l-45.64-.02c-.95-2.3,4.87-.67,4-5.22-.81-4.2.1-8.17-1.54-12.7l-8.12,18.48c-3.88-5.32-5.77-11.38-8.17-17.08ZM1537.11,700.38c-1.35-.96-5.32-2.33-5.71-.32-.76,3.97-.53,8.2-.03,12.08.71,1.32,4.22.41,5.38-.51,2.83-2.26,3.84-8.78.36-11.25ZM1586.85,725.92l2.1-17.85c.23-1.95-.8-3.15-1.98-3.71-1.29-.61-3.84-.55-3.94,1.45-.35,7.39-.38,14.59.03,21.89.05.9,1.87,1.01,2.21.58.34-.42,1.42-1.06,1.58-2.37ZM1640.58,723.28c.12,1.46-.17,2.77.23,4.75,1.81-1.63.8-3.48.76-4.83-.16-6.14.44-12.28-.23-19.3-2.61,1.04-.56,3.26-1.74,5.2-1.81-.55-1.23-2.48-2.35-3.72-2.46-.78-4.73-.71-7.43-.21.35,2.89-1.01,7.1.38,9.28,2.08,2.02,6.25.45,7.33-2.72,1.63,3.01,1.1,5.75.41,8.83-1.52-2.95-5.89-4.26-7.94-1.98-.49,1.96-.82,6.17.25,8.07,1.34,2.38,6.76,1.43,8.06-.74.81-1.35.98-2.53,2.27-2.63ZM1563.29,707.16c-.6-1.95-4.71-3.01-6-1.88-.77,2.67-.72,6.76-.03,9.47,1.31,1.06,4.2-.2,5.15-1.25,1.27-1.41,1.65-3.82.88-6.33ZM1653.35,705.41c-1.03-.51-4.11-1.25-4.31.13-.48,3.26-.62,6.49.12,9.18.82,1.02,3.33.06,4.23-.66,2.48-1.94,2.45-7.44-.04-8.66Z"/>
        <path class="st4" d="M1600.79,641.35c-7.75,17.84-3.07,44.54,17.34,48.88,10.2,2.17,20.44-1.03,28.12-7.86,1.04.05,1.29,1.21,1.34,1.73.11.98-.9,1.76-1.66,2.4-13.11,11.08-33.31,10.55-45.95-.49-12.39-10.82-15.55-28.62-8.37-43.27,7.07-14.43,22.9-22.61,39.21-19.85,8.85,1.5,12.82,4.86,17.63.45.29,6.12.64,11.38-1.01,18.17-2.61-8.91-8.3-13.59-16.76-15.68-12.4-3.07-24.7,3.53-29.91,15.52Z"/>
        <path class="st4" d="M1683.07,730.19c-7.4,1.78-14.27-.81-17.57-6.72-3.13-5.59-2.55-13.4,2.53-17.91,2.95-2.62,6.81-3.26,10.67-3.18,7.26.14,13.09,5.25,14.19,11.83,1.15,6.88-2.25,14.16-9.81,15.99ZM1684.43,709.52c-.75-3-2.67-4.82-5.35-4.81-9.65.03-8.84,14.87-6.07,20.81,1.19,2.55,3.68,2.75,6.01,2.61,7.52-.46,6.66-13.61,5.41-18.62Z"/>
        <path class="st4" d="M1592.45,713.69l-1.75.79c.21-1.32-.38-2.71.41-3.99l1.34,3.2Z"/>
        <path class="st4" d="M1761.98,675.63l-1.56.18c0-1.13-.48-1.66.01-2.54,1.31.38,1.09,1.59,1.54,2.36Z"/>
        <path class="st4" d="M1388.01,619.43l-1.48.14c.02-.34-.38-.8-.18-1.3.14-.35.54-.56,1.17-.43.71.15.29,1.07.49,1.6Z"/>
        <path class="st4" d="M1865.68,623.32c-.11-.02-.34.05-.78.08.01-.82-.49-1.84.41-2.45.6,1.06.25,1.75.37,2.37Z"/>
        <path class="st4" d="M1420.56,673.29l-.14,1.16c-.08.64-.48.35-.81.04-.44-.42-.58-.86-.75-1.31l1.7.1Z"/>
        <path class="st4" d="M1760.44,641.49h.76c-1.61,2.05-.83.4-.76,0Z"/>
        <path class="st4" d="M1640.58,723.28l.99-.08c.03,1.35,1.05,3.2-.76,4.83-.4-1.98-.12-3.3-.23-4.75Z"/>
      </g>
      <circle class="st4" cx="1769.37" cy="183.35" r=".4"/>
      <g>
        <path class="st4" d="M1400.46,276.33c-34.91,38.17-62.26,82.62-78.18,132.45-29.01,90.85-12.55,182.39,35.06,263.36,3.69,6.27,7.05,13.97,12.7,17.97,4.62,3.27,9.58-3.85,9.82-8.23l3.85-70.13c-3.69-6.92-11.94-5.51-11.96-6.97-.03-1.91,17.69-.82,20.96-.88l26.13,69.29c.17.45.31.89.75,1.31.33.31.73.61.81-.04l.14-1.16,26.77-69.4c3.17.11,18.78-1.07,18.6.89-.16,1.68-9.58-.34-9.07,9.96l3.43,69.21c.19,3.85,3.32,5.96,5.95,6.66,2.66.71,7.54-.39,7.56-4.21l.36-54.24c.03-4.76-3.49-5.35-7.57-7.62l63.45.04c-2.17,2.64-4.46,1.43-5.14,3.92-.31,1.13-.46,3.09.49,4.72,4,6.82,8.41,12.88,13.27,20.17,5.47-7.11,10.43-13.76,15.33-20.96,1.03-1.52.94-3.62.14-5.09-.55-1.01-2.03-1.44-3.89-1.52-.31-.6-.26-1.11.08-1.17.34-.05,1.11-.43,1.57-.43l38.78.52c-4.62,2.27-7.52,3.38-7.51,8.18l.03,50.57c0,8.69,5.27,5.66,7.4,8.89l-43.13.37c-.87,0-1.21-.47-1.27-.84-.22-1.46,3.78-.68,4.55-3.54.34-1.27.37-3.14-.54-4.51-4.61-7.01-8.82-13.78-14.29-21.19l-38.86,56.92c-1.12,1.64-1.22,3.65-.65,4.98,1.4,3.29,5.71,1.53,5.25,3.66-.16.72-18.64,1.14-21.17-.21,6.03-1.91,9.55-3.62,12.74-8.25l41.13-59.8-18.93-28.38c-1.8-2.7-4.4-4.94-7.61-5.1-.81,3.54.79,6.6-.79,9.82-.7-12.79-15.88-8.4-25.35-8.99l.02,29.79c8.73-.27,19.68,2.77,22.33-6.8.76,6.12.62,11.2.04,16.96-1.51-4.27-2.84-7.01-7.12-7.19-5.01-.22-9.99-.31-15.25.04l-.04,24.96c0,2.56,2.06,4.69,4.61,4.66,14.73-.15,17.24,1.92,22.71-7.95,2.18-3.93-1.08,10.6-1.48,10.82l-64.85.16c-1.18,0-1.31.11-1.34-.86-.02-.71.38-.88,1.28-1.29,4.52-.26,8.07-3.73,7.83-8.69l-3.39-67.87-31.01,78.57-27.99-73.21c-.2-.52.21-1.45-.49-1.6-.63-.13-1.02.07-1.17.43-.21.51.19.96.18,1.3l-2.77,61.61c-.13,2.95.59,6.41,2.63,7.42l6.84,3.39c-7.41,1.6-14.22.02-22.14.88,27.66,36.59,60.06,68.34,99.55,92.52,79.33,48.56,172.92,53.77,259.77,23.13,13.52-4.77,25.79-10.41,38.06-16.7l.36,1.07c-45.55,30.9-99.04,48.99-154.18,53.13l-7.35.55c-9.5.71-18.87.67-28.37-.04l-8.8-.65c-37.85-2.81-85.56-14.54-119.1-31.4l-23.49-11.8-13.84-7.98c-4.87-2.81-22.32-15.11-26.9-18.83l-10.92-8.87c-2.82-2.29-4.88-5.89-8.45-6.73-.24-.25-.74-.61-.84-.93-.55-1.72-7.84-9.36-9.28-9.14-.41-.59-1.15-1.16-1.67-1.68-.91-3.82-5.05-5.8-7.14-8.93-2.63-3.95-5.85-6.81-8.6-10.41-9.93-13.01-18.48-25.9-26.17-40.42-16.74-31.6-27.83-65.5-33.65-100.79-.17-1.05-.68-1.5-1.29-1.13-.06-.47.07-.98-.02-1.45,1.29-.63.51-2.28.32-3.63-.3-2.07-3.96-29.6-2.89-27.44-.21-.43-.55-1.12-1.36-.75-.04-.47-.07-.98-.02-1.45.82,2.11,1.49-14.49-.76-11.22.19-1.25-.03-2.57-.03-3.83.34.1.65-.32.65-.86v-26.8c0-.54-.31-.96-.65-.86,0-1.01-.04-2.04.03-3.04,2.27,2.9,1.58-12.34.76-10.43.03-.46-.02-.99.02-1.45.45.31.78.03,1.02-.18.6-.52.29-1.47.37-2.35,3.24-38.66,17.73-83.44,36.23-117.44l3.94-7.25c10.96-20.15,24.71-37.83,40.44-54.57,11.57-12.31,24.3-22.64,38.08-32.28,1.94-1.35,3.47-2.89,5.56-3.21ZM1573.13,689.51c.99-.83,2.35-2.42,2.35-4.49l-.02-53.54c0-3.51-2.82-5.64-6.1-5.75-4.87-.16-8.41,2.68-11.18,6.39l-17.83,23.92,17.51,26.26c3.43,5.15,10.08,11.57,15.27,7.21Z"/>
        <path class="st4" d="M1768.83,792.88c-.18.13,2.72-.13,1.63.54-46.17,32.6-102.37,51.96-158.92,54.27l-9.04.37c-6.4.26-12.99.24-19.31-.09l-13.73-.71c-49.92-2.59-114.63-24.97-157-52.09-16.24-10.4-31.71-21.44-45.04-34.9,3.57.84,5.63,4.44,8.45,6.73l10.92,8.87c4.58,3.72,22.03,16.02,26.9,18.83l13.84,7.98,23.49,11.8c33.54,16.86,81.25,28.59,119.1,31.4l8.8.65c9.51.71,18.87.75,28.37.04l7.35-.55c55.14-4.14,108.63-22.23,154.18-53.13Z"/>
        <path class="st4" d="M1401.37,273.41c-.13.74-.17,1.48-.12,2.23-.27.12-.58.47-.79.7-2.1.32-3.63,1.85-5.56,3.21-13.77,9.64-26.51,19.97-38.08,32.28-15.73,16.74-29.48,34.42-40.44,54.57l-3.94,7.25c-18.5,34.01-32.99,78.78-36.23,117.44-.07.88.23,1.83-.37,2.35-.24.2-.57.49-1.02.18,2.42-24.75,6.85-51.01,16.28-74.83l5.92-14.97c13.5-34.12,32.61-65.48,58.06-92.02,14.2-14.81,29.2-27.85,46.28-38.39Z"/>
        <path class="st4" d="M1355.63,748.49c-18.07-18.13-31.91-39.77-44.51-62.28-15.68-28.01-28.22-68.3-32.34-99.4.61-.37,1.12.08,1.29,1.13,5.82,35.29,16.91,69.19,33.65,100.79,7.69,14.52,16.24,27.41,26.17,40.42,2.75,3.6,5.97,6.46,8.6,10.41,2.08,3.13,6.23,5.12,7.14,8.93Z"/>
        <path class="st4" d="M1278.76,585.36c-2.17-10.4-2.94-21.17-3.93-31.82.81-.37,1.15.32,1.36.75-1.07-2.16,2.59,25.37,2.89,27.44.2,1.35.97,3-.32,3.63Z"/>
        <path class="st4" d="M1775.11,787.99c.36.62,1,.99,1.7,1.09-1.55,2.45-4.2,2.81-6.35,4.33,1.09-.67-1.81-.41-1.63-.54l-.36-1.07c2.35-1.21,4.11-3.01,6.63-3.82Z"/>
        <path class="st4" d="M1366.58,759.32c-3.67-2.18-6.86-5.63-9.28-9.14,1.44-.22,8.73,7.43,9.28,9.14Z"/>
        <path class="st4" d="M1274.8,552.09c.36-3.82-1.34-7.44-.76-11.22,2.26-3.26,1.58,13.33.76,11.22Z"/>
        <path class="st4" d="M1274.04,505.49l.76-10.43c.81-1.91,1.5,13.33-.76,10.43Z"/>
      </g>
    </g>
    <path class="st4" d="M1298.4,754.97c-.98.03-1.43-.18-1.56-.49-.21-.5,0-.92.4-1.18.36-.24.94.06,1.19.37.2.24-.24.95-.03,1.3Z"/>
  </g>
  <g>
    <g>
      <g>
        <path class="st1" d="M445.66,414.07l-35.11,43.3c-13.98-5.74-21.75-19.77-18.13-34.72l45.01-185.84c7.16-18.21,26.99-26.01,43.95-16.44,10.75,6.07,18.2,18.28,15.07,31.29l-36.78,152.66c-5.43,2.6-10.11,4.94-14.01,9.75Z"/>
        <path class="st1" d="M536.53,576.74c-17.04-1.67-30.5-17.33-26.87-34.55l28.03-132.72c3.11-14.73,17.9-24.54,32.32-23.53,18.13,1.28,31.79,17.99,27.95,35.99l-28.24,132.44c-3.17,14.85-18.17,23.84-33.2,22.37Z"/>
        <path class="st1" d="M631.47,413.39c-.12.59.55.79,1.13.65.27-.06.58-.22.46-.64,18.62.29,34.27,17.1,30.15,35.75l-25.61,115.93c-3.19,14.45-15.25,23.79-30.01,24.15-18.39.45-35.12-15.92-30.87-35.06l26.37-118.88c2.9-13.05,16.22-20.76,28.38-21.9Z"/>
        <path class="st1" d="M465.15,562.3c-23.8-6.33-25.53-35.1-19.34-43.31,15.56-20.61,31.63-39.78,48.18-59.45,12.44-14.78,13.18-35.55-1.82-49.05-5.93-5.34-13.72-8.16-22.19-7.84,1.72-7.48,2.45-14.76,4.85-22.03,4.95-14.99,19.72-23.98,35.39-20.82,13.74,2.77,27.23,16.91,24.01,32.45l-30.54,147.48c-1.73,8.34-7.37,15.42-14.22,19.65-7.25,4.48-15.98,5.13-24.33,2.91Z"/>
        <path class="st1" d="M399.43,549.82c-11.6-.31-20.47-7.88-23.56-18.55-2.99-10.3-.64-20.85,6.23-29.35l69.56-86.05c4.74-3.81,9.19-6.77,15.09-7.93,14.35-2.83,28.02,5.98,30.89,20.42,1.75,8.77.11,18.13-5.74,25.36l-69.29,85.62c-5.68,7.02-14.1,10.71-23.18,10.47Z"/>
      </g>
      <path class="st5" d="M727.87,217.37c-3.53,9.26-12.11,18.42-22.11,14.36-2.97-1.2-5.71-4.38-7.2-9.01l-8.38,10.73c-1.42,1.82-4.06.36-5.58-.61-1.34-.85-3.94-3.5-2.35-5.72l23.39-32.65c1.32-1.84,4.65-.42,5.84.43,1.77,1.26,2.75,3.07,2.5,5.93,4.86-.58,9.09.78,11.95,4.18,2.81,3.34,3.63,7.92,1.94,12.36ZM710.77,222.73c4.39-2.06,7.62-6.77,7.85-11.37.13-2.61-2.28-4.37-3.83-4.78-2.29-.6-4.91-.57-6.34,1.4l-4.05,5.61c-1.74,2.41-1.52,4.9-.23,6.93,1.23,1.93,3.81,3.51,6.59,2.2Z"/>
      <path class="st5" d="M828.61,373.71c.04-.4.21-.64-.7-.82-4.12,1.13-7.35,4.17-12.23,5.04-3.03.54-6.56-6.62-3.94-8.56,11.85-6.92,24.36-11.98,36.74-18.05,2.57-1.26,4.55,1.84,5.16,3.29.81,1.92.82,4.44-1.05,6.13,4.99,1.54,7.68,5.17,8.76,9.37,1.13,4.4-.81,8.91-4.41,11.99-7.08,6.06-18.97,9.57-25.06,3.09-2.72-2.89-3.72-7-3.27-11.47ZM840.31,378.52c3.36.07,14.04-3.58,11.74-10.46-.89-2.66-4.08-4.71-7.07-3.73-5.76,1.9-10.37,4.05-10.12,8.97.13,2.6,1.85,5.15,5.44,5.22Z"/>
      <path class="st5" d="M846.39,412.42c-5.45-2.98-8.66-8.15-7.21-14.11,1.04-4.3,4.95-6.3,8.33-7.07,9.45-2.15,12.6,8.92,16,14.29,8.83-2.24-4.65-13.48-1.56-17.42.81-1.03,4.05-1.87,5.39-.47,4.24,4.45,13.59,21.99,1.28,27.39-6.01,2.64-12.19,4.74-18.46,6.93-2.58.9-4.17-.86-4.79-2.88-.68-2.25-.88-4.06,1.02-6.66ZM853.67,401.41c-1.71-1.86-5.28-1.12-5.96.8-.95,2.67,1.05,5.17,2.77,6.21,1.48.9,5.72,1.45,6.15-.5.47-2.11-1.51-4.93-2.96-6.51Z"/>
      <path class="st5" d="M732.87,249.92c-3.75-1.87-7.88-1.8-10.49-5.16-3.23-4.15-3.07-9.53.19-13.32,7.04-8.19,15.72-1.21,22.36,3.72,7.26-6.85-13.08-10.44-9.35-15.59,4.71-6.51,15.69,5.05,19.02,9.38,2.65,3.45,2.29,8.12-.36,11.59-4.1,5.39-8.64,10.31-13.21,15.34-1.67,1.84-4.27.11-5.81-.47-1.91-.71-1.45-3.87-2.35-5.49ZM740.11,240.43c-.32-2.06-6.57-6.77-9.55-3.38-.9,1.02-1.38,2.67-.57,4.01,1.19,1.97,3.59,2.52,5.56,2.52,1.49,0,4.89-1,4.55-3.15Z"/>
      <path class="st5" d="M863.46,594.53c.72.33,1.19-.25.02-.76-2.67-4.7-3.61-10.43.07-15.16,2.35-3.01,6.51-3.62,10.47-2.91,3.13.55,6.47,3.42,7.52,7.37,1.15,4.35-.19,8.63.38,12.98,10.11,2.93.56-19.09,9.35-15.97,6.02,2.13,2.84,15.8,1.15,20.35-1.84,4.97-6.32,7.07-11.47,6.38l-17.96-2.41c-1.7-.23-2.51-1.38-3.22-2.3-1.32-1.7.52-7.6,3.69-7.56ZM874.9,586.84c-1.16-2.46-4.78-2.29-5.94-.43-1.34,2.14-.66,4.85.55,6.46.96,1.28,4.01,3.35,5.32,2.15,1.44-1.95,1.19-5.8.07-8.18Z"/>
      <path class="st5" d="M677.29,177.52c3.24-3.2,9.19,1.46,9.41,1.97.43.99.62,2.54-.43,3.45l-32.26,27.87c-2.82,2.43-9.77-.51-9.44-3.99,1.66-4.16,7.04-5.4,9.31-8.96l5.2-31.28c.37-2.22,4.26-.36,5.52.33,6.64,3.67,2.08,8.93-.21,20.64-.12.64,1.51,1.21,1.91.81l10.98-10.84ZM664.74,189.48c0-.22-.18-.4-.4-.4s-.4.18-.4.4.18.4.4.4.4-.18.4-.4Z"/>
      <g>
        <path class="st5" d="M866.41,525.3c9.09-3.2,24.58,1.46,23.02-6.61-1.64-8.45-13.14-3.53-23.26-4.51-2.11-.2-2.24-4.24-2.36-5.82-.19-2.47,1.35-4.35,3.87-4.4,8.68-.18,17.2-1.23,25.95-.94,2.56.09,2.99,3.28,3.1,4.85.16,2.35-1.14,3.65-3.3,5.44,4.42,3.82,5.91,10.11,3.13,15.32-1.65,3.09-5.64,4.7-9.19,4.84-6.95.27-13.59,1.58-20.5.55-2.41-.36-2.89-7.86-.45-8.72Z"/>
        <path class="st5" d="M873.46,478.61c-12.63,2.12,1.9,19.04-6.37,19.11-1.34.01-3.37-.47-4.15-2.22-2.91-6.56-4.22-18.9,2.52-24.09,5.76-4.43,14.25-5.53,20.9-2.56,5.38,2.41,7.29,8.03,7.94,13.34,1,8.05-3.81,14.12-11.83,15.7-2.07.41-5.79.79-6.24-2l-2.77-17.28ZM881.3,488.1c4.75-.02,5.99-3.05,5.87-6.26-.12-3.14-5.11-6.28-6.63-3.65-1.45,2.96,1.09,7.06.77,9.91Z"/>
      </g>
      <path class="st5" d="M193.38,761.09l20.87,24.35,10.91,11.13c5.94,6.06,12.12,11.07,18.49,16.44l15.08,12.7c19.43,16.37,41.52,27.21,61,42.83-6.17-.96-10.96-3.61-16.05-6.62-41.02-24.26-77.97-54.28-105.99-93.09-1.91-2.65-3.97-4.92-4.32-7.74Z"/>
      <path class="st5" d="M781.68,286.98c-4.79,3.76,4.18,6.7,2.1,10.39-.87,1.54-2.78,2.53-4.8,2.07-2.79-.65-4.25-3.24-6.07-5.32-3.32-3.79-4.01-9.44-.1-13.02l11.92-10.91c-1.65-1.64-2.59-3.08-2.51-4.63.1-1.78,1.28-2.93,2.73-3.3,2.08-.53,3.66.72,5.11,2.71l8.05-5.38c2.52-1.68,7.26,3.45,6.36,6.53-.96,3.28-4.79,4.36-6.79,7.04.72,2.22,2.97,3.52,4.15,5.45s.37,4.17-.91,5.01c-4.55,3-6.51-4.23-9.47-4.6-3.79,1.98-6.45,5.38-9.76,7.97Z"/>
      <path class="st5" d="M809.37,325.83c-1.61,6.21,9.66,11.21,3.78,14.25-5.13,2.65-8.1-2.85-11.11-7.66-4.83-7.73-2.11-16.45,5.37-21.2,4.89-3.1,10.6-5.46,16.31-2.9,5.36,2.41,13.29,13.07,10.17,17.04-1.29,1.65-4,2.48-5.59.43-1.91-2.47-2.63-7.02-6.36-7.89-4.61-1.07-11.31,3.03-12.57,7.92Z"/>
      <g>
        <path class="st5" d="M793.1,803.44c4.24,5.32-5.28,14.22-9.55,17.62-3.99,3.18-9.15,2.94-13.15-.38-4.95-4.12-9.81-8.4-14.4-13-1.85-1.85-.27-4.48.75-5.83,1.48-1.95,3.47-1.9,6.36-1.85-.2-5.1,1.83-9.65,6.09-11.94,4.12-2.22,8.6-1.11,11.88,1.88,7.56,6.89.49,15.79-4.56,21.91.81,2.26,4.88,2.08,6.38,0l6.29-8.7c.99-1.37,3.22-.57,3.91.3ZM774.72,797.17c-1.18-.8-2.88-.94-4.1-.04-1.83,1.34-2.41,3.62-2.3,5.41.1,1.48,1.18,4.75,3.29,4.39,2.01-.35,7.09-7.07,3.1-9.76Z"/>
        <path class="st5" d="M820.95,729.7c-.48,6.68,8.22,7.62,17.01,14.22,1.69,1.27.69,4.02,0,5.34-.81,1.57-2.78,4.31-5.27,3.08-8.08-4-15.64-8.62-23.33-13.19-2.04-1.21-.69-4.46-.07-5.92.84-1.95,2.57-2.74,5.42-3.18-.51-5.32.28-10.61,4.74-13.8,2.99-2.13,7.26-1.62,10.59.06,6.07,3.07,11.72,6.46,17.54,10.05,1.96,1.2,1.01,4.29.23,5.76-5,9.47-19.16-9.59-25.08-5.97-.88.54-1.65,1.72-1.79,3.56Z"/>
        <path class="st5" d="M802.51,776.76c-7.97-3.87,4.14-13.42,7.26-20.05-1.93-1.96-5.06-1.68-7.28.17-5.62,4.7-5.35,12.87-10.04,9.77-5.34-3.53,2.13-12.55,5.37-15.89,5.54-5.71,13.39-6.02,19.88-1.58,4.64,3.16,9.15,7.38,9.06,13.59-.11,6.83-4.93,13.74-11.31,16.26-4.51,1.78-8.98-.35-12.94-2.28ZM809.26,769.23c3.4,3.05,6.83,1.72,8.39-.91,1.76-2.96.91-6.2-2.46-7.82-2.21,2.93-4.11,5.24-5.93,8.73Z"/>
        <path class="st5" d="M865.07,636.61c-8.56-4-9.07,10.47-9.75,13.25-.4,1.64-2.62,1.78-3.79,1.44-6.55-1.87-.81-16.29,2.39-20.34,4.56-5.76,11.88-5.75,18.21-3.84,9.42,2.85,13.74,11.05,10.82,20.18-2.48,7.72-8.55,12.18-17.17,10.29-1.3-.28-3.2-.35-4.07-1.29-1.09-1.18-1.22-2.78-.96-4.49l4.31-15.2ZM868.54,648.31c4.38,1.44,7.24-.61,7.78-4.08.47-3.03-1.17-5.67-4.96-6.25-1.19,3.42-2.25,6.73-2.81,10.33Z"/>
        <path class="st5" d="M867.6,688.49c-.98,1.32-3.61,1.18-4.68.84s-2.29-2.33-1.69-3.83c.95-2.33,6.41-10.37,3.5-12.09-3.78-2.23-4.7,5.13-10.47,9.42-3.38,2.51-8.05,1.77-11.4-.51-7.58-5.15-1.82-18.24,2.53-24.17.96-1.31,2.97-1.29,3.99-1.22,1.43.11,3.64,1.26,3.03,3.3-.71,2.39-7.57,11.78-3.42,13.29,4.82,1.77,7.42-16.31,20.27-9.71,8.5,4.37,3.06,18.33-1.66,24.67Z"/>
        <path class="st5" d="M851.43,704.53c-2-4.47-8.88-7.64-13.3-6.21-6.19,2.01-3.64,13.57-10.18,10.62-5.15-2.33-.63-10.82,1.56-14.52,4.32-7.29,12.4-8.87,19.91-5.44,5.65,2.59,11.21,6.75,11.39,13.65.14,5.23-4.9,19.97-11.62,15.79-4.67-2.91,4.49-8.86,2.24-13.89Z"/>
        <path class="st5" d="M817.3,803.76c-1.9,2.57-4.48,3.54-6.95,1.55l-31.04-24.93c-1.89-1.51.13-4.55.88-5.77.84-1.36,3.61-4.17,5.73-2.49l32.31,25.46c2.01,1.58.22,4.6-.94,6.17Z"/>
      </g>
      <path class="st5" d="M667.02,875.43c-7.88,3.35-34.05,13.87-42,12.91,12.89-3.88,24.91-9.23,37.34-14.6,4.02-1.74,7.33-3.87,11.19-5.82,18.64-9.4,36.33-19.73,53.87-31.32,3.91-2.58,8.21-4.11,12.84-5.86-5.94,7.78-14.09,11.94-22.01,17.01-16.5,10.57-33.18,20.01-51.23,27.68Z"/>
      <path class="st5" d="M908.21,570.98c-13.82.55-26.64-1.84-39.94-2.11-1.53-.03-3.04-.81-3.69-1.68-1.42-1.9-.52-7.24.68-8.36.64-.6,1.93-1.16,3.38-1.05l40.04,3.25c3.43.28,3.16,9.81-.47,9.95Z"/>
      <path class="st5" d="M877.61,441.73c-2.01-5.37-6.87-8.68-12.36-7.17l-9.87,2.7c-1.44.4-2.74.3-3.8-.5-1.48-1.12-4.06-8.24-.11-9.36l24.76-6.97c2.68-.75,4.4,1.29,5.03,3.53.43,1.54.74,2.75.17,4.37-.36,1.04-1.84,1.79-3.58,2.7,3.1,2.56,6.59,5.07,7.6,9.27.53,2.18-1.23,3.53-2.54,3.85-2.03.49-4.41-.02-5.31-2.42Z"/>
      <path class="st5" d="M770.19,249.17c-1.05-.07-1.06,1.09.02.73,3.83-.11,8.1,1.02,10.99,4.03,1.47,1.53.45,4-.81,5.05-1.56,1.3-3.78,1.27-5.65-.19-4.07-3.17-9.77-3.96-13.57-.28l-8.82,8.53c-2.57,2.49-7.53-2.88-7.74-4.74-.2-1.72.5-3.03,1.79-4.31l17.46-17.28c2.62-2.6,7.45,2.52,7.68,4.28.19,1.45-.43,2.67-1.34,4.18Z"/>
      <path class="st5" d="M813.94,298.72c-7.28,4.87-13.31,11.07-21.21,15.43-3.05,1.68-8.41-5.43-6-7.9,6.35-6.52,14.12-10.98,21.1-16.67,3.29-2.68,7.76,3.76,7.88,5.37.09,1.23-.42,2.87-1.77,3.77Z"/>
      <path class="st5" d="M843.76,343.07c-7.74,4.67-15.16,9.14-23.02,13.16-2.28,1.17-4.31-1.18-5.02-2.44-.87-1.54-2.66-5.18-.51-6.45l22.21-13.11c1.25-.74,2.74-.84,3.72-.43,1.91.79,6.06,7.2,2.62,9.28Z"/>
      <path class="st5" d="M825.08,282.77c1.33,1.84,2.4,3.47,1.67,5.36-.6,1.56-2.27,2.65-4.01,2.93-1.96.3-3.09-1.25-4.34-2.8-1.92-2.38-2.35-4.83-.34-6.58,2.34-2.04,5.06-1.63,7.02,1.1Z"/>
      <path class="st5" d="M856.33,329.7c.98,2.05,1.64,3.8.4,5.81-.69,1.12-2.35,1.75-4.52,1.79-1.67.03-2.29-1.62-3.4-3.36-1.58-2.5-1.73-5.06.52-6.56,2.65-1.76,5.43-.94,6.99,2.32Z"/>
      <path class="st0" d="M168.99,543.17v-28.52c.34-.1.65.32.65.86v26.8c0,.54-.31.96-.65.86Z"/>
      <path class="st2" d="M671.79,795.22c-.7-.1-1.34-.47-1.7-1.09-1.59.51,8.31-7.86,7.37-3.17-.58,2.86-4.69,2.73-5.66,4.26Z"/>
      <path class="st2" d="M296.23,281.76c-.04-.75,0-1.49.12-2.23.53-.33.84-1.13,1.33-1.06.76.1.69.37.87.69.25.45.07,1.56-.56,1.83l-1.76.77Z"/>
      <g>
        <path class="st0" d="M434.76,949.62c3.12-.84,3.34-4.21,5.47-6.23.32,2.94-.88,5.45-1.68,8.7l-44.79-.13c1.19-1.67,2.91-.54,3.89-1.3,3.36-2.59-2.89-14.16-4.08-19.27l-17.59-.08c-1.33,4.91-6.28,15.51-4.43,18.71.64,1.11,2.22.53,3.37,1.77-4.3.43-7.8.77-12.22-.08,3.24-1.32,5.38-3.18,6.48-6.53l14.87-44.97c.4-1.22,4-1.1,4.39-.02l16.78,47.15c.67,1.89,2.47,3.57,4.06,3.49,1.45-.08,3.61-1.89,3.62-3.87l.23-39.42c.02-4.05-2.2-5.93-5.98-6.91,6.46-.55,11.99-.6,17.6-.05-2.79,1.31-5.7,1.61-5.71,4.63l-.03,40.4c0,6.69,12.56,4.87,15.75,4.01ZM392.44,928.32l-8.1-22.8-7.46,23.29c5.65-.19,10.53.72,15.56-.49Z"/>
        <path class="st0" d="M600.76,922.25c0,17.51-14.2,31.71-31.71,31.71s-31.71-14.2-31.71-31.71,14.2-31.71,31.71-31.71,31.71,14.2,31.71,31.71ZM592.15,932.77c1.67-7.76,1.55-15.18-.4-22.49-2.89-10.84-12.26-17.6-23.1-17.45-10.77.15-19.8,7.27-22.43,18.25-1.87,7.8-1.87,15.84.37,23.52,3.13,10.76,12.64,17.49,23.35,17.11,10.94-.39,19.76-7.53,22.22-18.95Z"/>
        <path class="st0" d="M352.82,961.32c-11.12,4.13-17.21-5.42-18.95.87.1-3.58-.43-7.06.27-11.47,1.94,4.38,5.17,10.69,12.22,9.02,3.72-.88,7.44-4.52,7.45-9.22l.11-56.12c0-2.93-3.78-3.31-5.89-4.94,6.6-.41,13.12-.35,19.77.09-4.45,1.37-7.03,2.88-7.04,7.13l-.11,52.89c-.01,5.1-3.2,10.03-7.83,11.75Z"/>
        <path class="st0" d="M499.98,912.18c-4.23,8.84-4.18,19.31-.05,27.76,4.4,9,13.76,12.97,23.18,10.72,4.29-1.03,8.28-3.05,11.6-5.88.96.37.73,1.56-.11,2.31-9.98,8.81-25.21,9.07-35.61.11-10.21-8.8-11.52-24.05-4.95-35.02,7.03-11.74,20.82-16.13,34.04-12.04,2.51.77,5.16,2.06,7.71-.23.69,3.67.95,7.43-.53,12.04-1.64-4.36-3.89-7.02-7.87-8.96-10.16-4.96-22.19-1.67-27.41,9.21Z"/>
        <path class="st0" d="M458.72,952.79l-.1-1.8c-.21-3.65-.74-7.36.58-11.13,1.63,5.11,4.18,8.78,7.71,10.28,4.63,1.95,9.82,1.96,13.52-.92,2.64-2.06,3.31-5.41,2.94-8.46-1.49-12.42-27.08-11.12-23.39-30.18.98-5.04,5.34-9.74,11.26-10.99,9.54-2.01,9.32,2.52,14.85-.19.18,3.78.83,7.29-.49,11.13-1.84-5.38-4.85-9.22-9.89-9.47-4.83-.24-9.4,2.28-10.56,7.21-3.22,13.76,11.36,14.16,20.04,22.83,5.94,5.94,3.93,15.97-3.27,20.17-6.48,3.77-14.12,2.63-20.69-.85-1.57.49-1.2,3.34-2.53,2.39Z"/>
        <path class="st0" d="M457.2,951.13v.94c-5.77-.08-11.71.53-17.5-.35,1.8-1.15,3.53-.46,4.77-1.8.95-1.04,1.53-2.34,1.52-4.34l-.22-40.92c-.01-2.78-3.5-2.94-5.27-4.08,6-.55,11.34-.32,16.77.02-3.37,1.26-5.48,2.14-5.47,5.4l.1,41.07c0,2.94,2.99,4.29,5.3,4.06Z"/>
        <path class="st2" d="M458.62,950.99l.1,1.8c-.58-.03-1.12-.36-1.52-.73v-.94l1.42-.14Z"/>
      </g>
      <path class="st2" d="M633.06,413.4c.12.42-.19.57-.46.64-.58.14-1.25-.05-1.13-.65.85-.08,1.26.07,1.58,0Z"/>
      <g>
        <g>
          <path class="st5" d="M220.04,250.86c4.36-2.77,7.44-6.41,11.1-9.75,2.44-2.22,5.06-.51,6.52,1.58,1.84,2.65-.04,4.55-2.17,6.58l-13.05,12.44c-1.53,1.46-4.16,2.79-6.01.92-3.94-3.98-7.69-7.96-11.57-12.03l-14.3-14.98c-1.14-1.19-1.77-2.6-1.64-4.09.1-1.2,1-2.48,2.23-3.54,4.58-3.96,8.81-7.94,13.05-12.28,1.84-1.88,4.1-3.07,6.57-1.52,7.62,4.79-5.77,11.9-9.11,16.34,1.25,2.37,3.09,4.34,5.47,6.38,5.65-2.76,11.5-14.36,16.2-7.78,3.55,4.97-6.36,8.96-9.9,14.38l6.61,7.35Z"/>
          <path class="st5" d="M285.03,196.97c-3.62-10.32,9.23-14.75,11.43-17.75,1.29-1.77-2.91-3.2-4.71-2.27-6.25,3.23-10.5,9.88-13.15,5.15-.57-1.02-1.16-3.03.16-4.47,5.51-6,19.75-15.45,26.36-5.22,3.66,5.67,6.97,11.62,10.04,17.77,1.08,2.16-1.06,3.92-2.23,4.71-1.78,1.2-4.19,1.57-6.76.05-2.25,5.96-7.19,10.35-13.72,9.2-4.13-.73-6.42-4.32-7.42-7.19ZM296.76,195.41c2.8-.15,4.38-2.35,4.91-3.85.58-1.65.43-5.75-1.3-6-1.48-.22-8.01,2.9-6.76,7.48.27.99,1.19,2.49,3.15,2.38Z"/>
          <path class="st5" d="M258.66,229.29c-2.86,3.98-13.22,14.04-18.24,9.13-5.62-5.49,13.96-8.25,9.06-14-2.5-2.93-14.58,9.41-21.47-.51-6.24-8.98,5.27-17.53,12.94-21.29,1.65-.81,3.46.37,4.43,1.33,5.26,5.18-10.98,7.67-9.09,13.1,1.87,5.4,13.13-9.12,21.56.58,2.61,3,3.79,7.52.81,11.65Z"/>
          <path class="st5" d="M274.2,206.69c2.84,3.71,6.56-4.07,10.16-1.37,1.08.81,2.28,3.13,1.21,4.94-1.89,3.19-5.75,5.42-9.23,6.7-9.78,3.6-13.9-11.61-19.22-15.58-1.68.57-3.41,1.9-4.58,1.64-2-.45-2.78-1.65-3.04-3.24-.38-2.27,1.32-2.95,2.59-4.62,1.79-2.35-3.84-5.19-3.83-9.59,0-2.39,5.49-7.01,8.73-3.86,1.75,1.7,2.46,4.62,4.69,6.01,2.57,1.61,6.07-5.69,10.05-2.19,1.4,1.24,2,3.56.22,5.22-1.8,1.67-3.97,2.55-5.62,4.35,2.69,4,5.01,7.85,7.87,11.58Z"/>
          <path class="st5" d="M326.37,188.36c-2.92,1.31-5.42.92-6.69-1.88l-10.09-22.22c-.59-1.29-.35-2.94.29-4.06.51-.9,4.58-3.07,7.06-2.33.98.29,1.56,1.56,2.9,2.94,1.93-3.71,3.98-7.59,8.33-8.95,2.16-.67,3.84,1.21,4.31,2.9.57,2.01-.74,3.81-2.67,5.03-4.08,2.58-6.93,7.26-4.96,11.85l4.8,11.21c1.16,2.7-.81,4.39-3.28,5.5Z"/>
          <path class="st5" d="M351.51,167.95c.44,4.51,1.14,14.89-2.19,17.47-1.24.96-5.02,2.53-5.99.36-1.98-4.43-2.41-10-2.61-14.92-.14-3.34,7.81-5.22,8.23-5.23.94-.02,2.43.87,2.57,2.31Z"/>
        </g>
        <g>
          <path class="st5" d="M558.84,159.6c-6.46,3.88-15.56,2.47-18.4-5.12-3.63-9.69.95-26.69,12.99-26.54,3.86.05,7.06,1.85,10.32,5.47,3.34-6.17.51-17.09,8.37-15.67,1.48.27,3.06.53,3.8,1.31.98,1.05,1.34,2.66.99,4.3l-8.29,38.53c-.56,2.6-3.76,2.25-5.31,2.08-2.4-.27-3.59-1.42-4.45-4.36ZM560.78,150.42l1.36-6.17c.68-3.1-.64-5.96-2.87-6.99-2.63-1.21-5.8-.93-7.39,1.6-2.13,3.4-3.12,7.77-2.26,11.63.64,2.88,3.03,4.04,5.4,3.99,2.35-.05,5.07-.98,5.75-4.06Z"/>
          <path class="st5" d="M418.79,170.57c.31,3.25-8.08,4.55-9.47,1.61l-6.86-41.25c-.27-2.3,3.31-2.9,4.77-3.25,1.76-.43,3.81.46,5.43,2.32,3.4-3.94,7.44-5.73,12.36-5.18,3.97.44,7.63,3.51,9.59,7.82,3.25,7.15,4.04,18.99-3.4,23.93-4.31,2.86-9.05,2.03-13.72.31l1.31,13.7ZM426.76,144.87c.03-3.73-.66-7.59-2.98-10.28-1.68-1.95-4.43-1.9-6.41-.88-5.22,2.67-3,7.34-2.23,12.68.5,3.46,3.66,5.07,6.79,4.79,2.72-.24,4.8-2.76,4.83-6.31Z"/>
          <path class="st5" d="M392.38,162.09c-.17-.24,0-.72-.13-1.11-.22-.67-.69-.26-1.18.33-.21.25.02.54.38.84-3.92,3.95-8.88,7.46-14.93,5.09-6.06-2.37-8.19-11.03-3.99-16.05,3.65-4.36,9.14-5.34,14.29-6.98-3.25-11.42-19.38,8.36-18.89-3.73.07-1.79,1.33-3.1,3.25-3.96,7.65-3.42,21.89-8.2,25.14,3.39,1.82,6.49,3.84,12.98,5.02,19.61.36,2-2.31,3.34-3.59,3.63-1.61.36-4.07.86-5.38-1.06ZM381.71,159.29c2.94,1.02,5.27-.76,6.36-2.47.83-1.32,1.62-5.29,0-5.89-2.32-.87-5.21,1.05-6.98,2.41-1.93,1.48-1.88,5.09.62,5.95Z"/>
          <path class="st5" d="M585.73,156.45c-3.07,12.26,18.06,6.55,14.61,13.69-3.19,6.59-16.89.25-20.9-3.41-5.08-4.63-4.53-11.63-2.81-17.54,2.78-9.56,11.21-13.46,20.43-10.49,7.95,2.56,12.4,9.41,9.84,18.06-.34,1.15-.59,2.77-1.48,3.52-1.19,1.01-3.01,1.13-4.71.62l-14.98-4.45ZM597.89,153.16c1.61-4.41-.54-7.32-4.03-7.81-3.05-.43-6,1.37-6.21,4.9,3.69,1.04,6.74,2.35,10.23,2.91Z"/>
          <path class="st5" d="M527.02,157.09c-6.65-1.75-1.19-10.94-1.77-22.35-.14-2.73-2.68-3.62-4.96-3.27-7.82,1.19-4.06,11.7-7.31,21.9-.91,2.85-9.08,2.4-9.21-.9-.37-9.49,1.51-18.76,2.7-28.09.31-2.41,4.15-1.95,5.61-1.83,1.88.14,3.05,1.45,4.6,3.68,5.1-3.62,11.96-3.91,16.45.36,4.57,4.34,1.16,19.87.6,27.4-.13,1.72-1.51,2.56-2.55,3.33-1.25.93-2.46.22-4.15-.22Z"/>
          <path class="st5" d="M484.6,147.09c3.84.8,7.07-.5,10.4-.39,1.57.05,2.19,2.1,2.08,3.12-.13,1.16-.73,3.27-2.38,3.76-8.61,2.57-22.89,1.52-25.51-10.56-1.32-6.07-.73-13.06,3.33-17.88,3.2-3.8,8.51-4.45,13.19-4.42,8.5.06,13.93,6.3,14.09,14.64.04,2.25-.09,5-3.06,5.35-5.75.69-11.41-.06-17.56-.21-.58,3.25,1.88,5.83,5.43,6.57ZM489.85,134.51c.63-5.21-2.33-6.85-6.13-6.63-2.41.13-5.52,3.28-4.06,5.95,2.78.88,6.86.49,10.19.68Z"/>
          <path class="st5" d="M638.34,159.14c-2.19,5.89-12.9-3.63-18.15,7.47-1.74,3.68-2.72,7.77-4.79,11.21-1.29,2.14-4.03,1.1-5.86.54-2.65-.81-4.35-2.97-3.21-5.81l9.54-23.75c1.3-3.23,7.86-.68,8.86.95.54.89.45,2.96.51,4.85,3.98-1.05,7.9-2.12,11.8-.33,1.87.86,1.96,3.13,1.31,4.88Z"/>
          <path class="st5" d="M451.51,126.5c.11.45.39,1.08,1.07.05,2.69-2.75,6.49-5.35,10.84-4.58,1.94.34,2.39,3.17,2.04,4.56-.4,1.56-2.08,2.91-3.86,3.22-13.94,2.4-6.99,16.68-9.02,23.37-.87,2.88-8.86,3.25-9.5.04-1.81-8.94-1.26-17.77-2.3-26.63-.33-2.82,2.38-3.74,4.46-3.99,3.26-.39,5.48.56,6.28,3.95Z"/>
          <path class="st2" d="M392.38,162.09l-.93.06c-.37-.3-.59-.59-.38-.84.49-.59.96-1.01,1.18-.33.13.39-.04.87.13,1.11Z"/>
          <path class="st2" d="M451.51,126.5l1.07.05c-.69,1.03-.96.39-1.07-.05Z"/>
        </g>
      </g>
      <path class="st2" d="M863.46,594.53l.02-.76c1.17.52.71,1.09-.02.76Z"/>
      <path class="st2" d="M770.2,249.9c-1.07.36-1.07-.8-.02-.73l.02.73Z"/>
      <path class="st2" d="M828.61,373.71c-.49.11-.64-.44-.7-.82.9.19.74.43.7.82Z"/>
      <g>
        <path class="st3" d="M760.66,629.45c-.12-.62.24-1.31-.37-2.37-.9.61-.4,1.63-.41,2.45-1.95-1.64-1.82-4.53-3.3-6.82-3.38-5.22-8.51-8.75-14.59-8.35-5.66.37-11,3.8-13.48,9.32-3.99,8.89-1.37,18.86,6.93,23.79l10.92,6.48c5.4,3.2,11,6.24,15.24,11.08,4.76,5.42,5.54,12.99,3.22,20.3-1.77,5.57-7.13,11.38-13.97,13.5-16.52,5.13-28.48-3.97-30.96-2.87-1.15.51-1.34,4-2.04,4.13-.47.09-1.92-.16-2.18-.79-1.13-2.67.11-5.55-.58-8.84-8.72,8.26-20.18,11.7-32.08,9.45-11.09-2.1-20.28-8.32-26.04-18.15-.45-.77-.23-1.99-1.54-2.36-.49.88-.01,1.41-.01,2.54l-.03,18.21c-2.65.39-3.53-1.58-4.99-3.21l-47.11-52.58-.06,46.78c0,4.54,3.4,6.12,7.97,6.8-4,2.05-7.77.2-12.78,1.14l9.81,28.15c1.45,4.16,3.95,5.56,8.51,7.73-2.47.38-26.02,1.49-23.58-1.07.79-.83,4.56-.22,5.88-1.83.87-1.06,1.25-2.95.63-4.71l-19.72-55.95-22.41-.05c-2.38,6.27-4.21,12.5-6.2,19.08-.58,1.9-.71,4.37.66,5.8,1.3,1.37,3.65-.17,4.57,2.63-5.94-.5-11.15.98-17.73-.75,4.88-2.22,7.53-4.53,9.07-9.17l19.57-58.84c1.8-.55,5.57-1.05,6.4.71l23.06,64.27c2.46-2.54,2.56-5.34,2.55-8.09-.09-15.46.78-30.8-.34-46.16-.38-5.18-7.29-7.38-11.05-9.72,3.92-.73,10-1.46,13.91.04l49.23,54.57.25-45.86c.01-2.53-.78-4.73-2.15-6.34-1.57-1.84-4.04-.57-6.49-2.82,6.96.06,13.32-1.11,19.85.66-4.4,1.53-7.21,2.81-7.23,7.08l-.04,9.2c-.07.4-.85,2.05.76.01,4.02-6.42,8.85-11.75,16.08-15.28,15.28-7.47,32.73-3.74,45.07,8.43-2.23-15.46,6.87-26.79,21.03-29.05,6.13-.98,12.92.64,18.88,1.92.76-.96,3.81-3.61,4.32-1.67,1.13,5.21.04,11,.48,16.7.05.68-.73.89-1.37.78ZM687.25,697.58c12.08.42,21.77-5.93,25.91-16.62,4.78-12.34,4.4-34.44-8.1-44.39-6.94-5.52-15.7-6.76-24.43-3.77-19.79,6.78-21.72,34.39-14.8,49.95,3.87,8.72,11.68,14.5,21.42,14.83ZM578.49,667.94l-10.32-29.04-9.76,29.01c6.75.4,12.97.35,20.08.03ZM756.15,681.34c-.25-11.64-10.74-16.31-19.16-21.07-4.97-2.73-9.47-5.37-13.76-9.38,4.31,11.55,3.23,23.17-3.13,33.24,3.66,9.57,13.02,14.05,22.9,12.56,7.89-1.19,13.34-6.58,13.15-15.36Z"/>
        <path class="st3" d="M487.43,719.82l-1.34-3.2c-.79,1.28-.2,2.68-.41,3.99-.11,4.05-3.08,10.23-.54,12.71l3.14,3.08h-26.05s-5.33-9.88-5.33-9.88c-.73-1.36-2.79-3.15-4.53-2.55-1.12,3.05-.46,6.84-.27,10.04,1.25.88,2.47.65,2.86,2.34-4.93.13-9.3.44-14.06-.23.73-2.2,3.75-.77,3.93-2.46.39-3.61.86-20.69-.53-22.87-.37-.59-1.37-.83-2.09-.26.85,5.29-2.48,9.78-8.06,10.86-2.72.53-5.44-.27-8.06.56.11,4.33-.95,10.55,1.22,12.39.61.52,2.39-.32,3.19,1.87-5.37.57-10.32.21-16.34.19.25-2.47,2.79-1.71,3.86-3.5l.09-26.92-4.25-3.02c6-1.04,11.93.12,17.96-.49,4.69-.48,7.45,2.74,9.88,5.68l17.64.74c3.09.13,5.5,2.96,6.14,5.39.87,3.32-.3,6.16-3.98,8.21,3.05,3.99,4.33,8.75,8.66,12.4,1.55-8.42.2-15.91.75-23.68-1.14-1.17-2.65-.82-3.05-2.55h21.73s7.78,15.74,7.78,15.74l6.76-15.54c3.09-.49,6.08-.5,9.46.04-.49,1.53-1.77,1.35-2.89,2.4l1.67,21.18c.14,1.84,1.69,2.56,3.01,2.39,1.49-.19,2.23-1.32,2.23-3.16v-19.86c-.01-1.65-2.24-1.19-2.91-3.07l34.39-.18c2.84-.01,5.78,1.71,7.34,3.87,2.63,3.63,1.09,8.35-3.24,10.05,4.48,5.26,4.89,9.43,10.01,13.79-2.86-.11-6.56,1.04-9.15-.31-.96,1.14-7.69-16.97-9.86-11.66-1.07,2.62-.4,6.11-.25,9.05.08,1.52,2.52,1.03,2.94,2.97l-45.64-.02c-.95-2.3,4.87-.67,4-5.22-.81-4.2.1-8.17-1.54-12.7l-8.12,18.48c-3.88-5.32-5.77-11.38-8.17-17.08ZM432.09,706.5c-1.35-.96-5.32-2.33-5.71-.32-.76,3.97-.53,8.2-.03,12.08.71,1.32,4.22.41,5.38-.51,2.83-2.26,3.84-8.78.36-11.25ZM481.83,732.05l2.1-17.85c.23-1.95-.8-3.15-1.98-3.71-1.29-.61-3.84-.55-3.94,1.45-.35,7.39-.38,14.59.03,21.89.05.9,1.87,1.01,2.21.58.34-.42,1.42-1.06,1.58-2.37ZM535.56,729.41c.12,1.46-.17,2.77.23,4.75,1.81-1.63.8-3.48.76-4.83-.16-6.14.44-12.28-.23-19.3-2.61,1.04-.56,3.26-1.74,5.2-1.81-.55-1.23-2.48-2.35-3.72-2.46-.78-4.73-.71-7.43-.21.35,2.89-1.01,7.1.38,9.28,2.08,2.02,6.25.45,7.33-2.72,1.63,3.01,1.1,5.75.41,8.83-1.52-2.95-5.89-4.26-7.94-1.98-.49,1.96-.82,6.17.25,8.07,1.34,2.38,6.76,1.43,8.06-.74.81-1.35.98-2.53,2.27-2.63ZM458.27,713.29c-.6-1.95-4.71-3.01-6-1.88-.77,2.67-.72,6.76-.03,9.47,1.31,1.06,4.2-.2,5.15-1.25,1.27-1.41,1.65-3.82.88-6.33ZM548.33,711.54c-1.03-.51-4.11-1.25-4.31.13-.48,3.26-.62,6.49.12,9.18.82,1.02,3.33.06,4.23-.66,2.48-1.94,2.45-7.44-.04-8.66Z"/>
        <path class="st3" d="M495.77,647.48c-7.75,17.84-3.07,44.54,17.34,48.88,10.2,2.17,20.44-1.03,28.12-7.86,1.04.05,1.29,1.21,1.34,1.73.11.98-.9,1.76-1.66,2.4-13.11,11.08-33.31,10.55-45.95-.49-12.39-10.82-15.55-28.62-8.37-43.27,7.07-14.43,22.9-22.61,39.21-19.85,8.85,1.5,12.82,4.86,17.63.45.29,6.12.64,11.38-1.01,18.17-2.61-8.91-8.3-13.59-16.76-15.68-12.4-3.07-24.7,3.53-29.91,15.52Z"/>
        <path class="st3" d="M578.05,736.32c-7.4,1.78-14.27-.81-17.57-6.72-3.13-5.59-2.55-13.4,2.53-17.91,2.95-2.62,6.81-3.26,10.67-3.18,7.26.14,13.09,5.25,14.19,11.83,1.15,6.88-2.25,14.16-9.81,15.99ZM579.41,715.65c-.75-3-2.67-4.82-5.35-4.81-9.65.03-8.84,14.87-6.07,20.81,1.19,2.55,3.68,2.75,6.01,2.61,7.52-.46,6.66-13.61,5.41-18.62Z"/>
        <path class="st2" d="M487.43,719.82l-1.75.79c.21-1.32-.38-2.71.41-3.99l1.34,3.2Z"/>
        <path class="st2" d="M656.96,681.76l-1.56.18c0-1.13-.48-1.66.01-2.54,1.31.38,1.09,1.59,1.54,2.36Z"/>
        <path class="st2" d="M282.99,625.55l-1.48.14c.02-.34-.38-.8-.18-1.3.14-.35.54-.56,1.17-.43.71.15.29,1.07.49,1.6Z"/>
        <path class="st2" d="M760.66,629.45c-.11-.02-.34.05-.78.08.01-.82-.49-1.84.41-2.45.6,1.06.25,1.75.37,2.37Z"/>
        <path class="st2" d="M315.53,679.42l-.14,1.16c-.08.64-.48.35-.81.04-.44-.42-.58-.86-.75-1.31l1.7.1Z"/>
        <path class="st2" d="M655.42,647.62h.76c-1.61,2.05-.83.4-.76,0Z"/>
        <path class="st2" d="M535.56,729.41l.99-.08c.03,1.35,1.05,3.2-.76,4.83-.4-1.98-.12-3.3-.23-4.75Z"/>
      </g>
      <circle class="st2" cx="664.35" cy="189.48" r=".4"/>
      <g>
        <path class="st6" d="M295.44,282.46c-34.91,38.17-62.26,82.62-78.18,132.45-29.01,90.85-12.55,182.39,35.06,263.36,3.69,6.27,7.05,13.97,12.7,17.97,4.62,3.27,9.58-3.85,9.82-8.23l3.85-70.13c-3.69-6.92-11.94-5.51-11.96-6.97-.03-1.91,17.69-.82,20.96-.88l26.13,69.29c.17.45.31.89.75,1.31.33.31.73.61.81-.04l.14-1.16,26.77-69.4c3.17.11,18.78-1.07,18.6.89-.16,1.68-9.58-.34-9.07,9.96l3.43,69.21c.19,3.85,3.32,5.96,5.95,6.66,2.66.71,7.54-.39,7.56-4.21l.36-54.24c.03-4.76-3.49-5.35-7.57-7.62l63.45.04c-2.17,2.64-4.46,1.43-5.14,3.92-.31,1.13-.46,3.09.49,4.72,4,6.82,8.41,12.88,13.27,20.17,5.47-7.11,10.43-13.76,15.33-20.96,1.03-1.52.94-3.62.14-5.09-.55-1.01-2.03-1.44-3.89-1.52-.31-.6-.26-1.11.08-1.17.34-.05,1.11-.43,1.57-.43l38.78.52c-4.62,2.27-7.52,3.38-7.51,8.18l.03,50.57c0,8.69,5.27,5.66,7.4,8.89l-43.13.37c-.87,0-1.21-.47-1.27-.84-.22-1.46,3.78-.68,4.55-3.54.34-1.27.37-3.14-.54-4.51-4.61-7.01-8.82-13.78-14.29-21.19l-38.86,56.92c-1.12,1.64-1.22,3.65-.65,4.98,1.4,3.29,5.71,1.53,5.25,3.66-.16.72-18.64,1.14-21.17-.21,6.03-1.91,9.55-3.62,12.74-8.25l41.13-59.8-18.93-28.38c-1.8-2.7-4.4-4.94-7.61-5.1-.81,3.54.79,6.6-.79,9.82-.7-12.79-15.88-8.4-25.35-8.99l.02,29.79c8.73-.27,19.68,2.77,22.33-6.8.76,6.12.62,11.2.04,16.96-1.51-4.27-2.84-7.01-7.12-7.19-5.01-.22-9.99-.31-15.25.04l-.04,24.96c0,2.56,2.06,4.69,4.61,4.66,14.73-.15,17.24,1.92,22.71-7.95,2.18-3.93-1.08,10.6-1.48,10.82l-64.85.16c-1.18,0-1.31.11-1.34-.86-.02-.71.38-.88,1.28-1.29,4.52-.26,8.07-3.73,7.83-8.69l-3.39-67.87-31.01,78.57-27.99-73.21c-.2-.52.21-1.45-.49-1.6-.63-.13-1.02.07-1.17.43-.21.51.19.96.18,1.3l-2.77,61.61c-.13,2.95.59,6.41,2.63,7.42l6.84,3.39c-7.41,1.6-14.22.02-22.14.88,27.66,36.59,60.06,68.34,99.55,92.52,79.33,48.56,172.92,53.77,259.77,23.13,13.52-4.77,25.79-10.41,38.06-16.7l.36,1.07c-45.55,30.9-99.04,48.99-154.18,53.13l-7.35.55c-9.5.71-18.87.67-28.37-.04l-8.8-.65c-37.85-2.81-85.56-14.54-119.1-31.4l-23.49-11.8-13.84-7.98c-4.87-2.81-22.32-15.11-26.9-18.83l-10.92-8.87c-2.82-2.29-4.88-5.89-8.45-6.73-.24-.25-.74-.61-.84-.93-.55-1.72-7.84-9.36-9.28-9.14-.41-.59-1.15-1.16-1.67-1.68-.91-3.82-5.05-5.8-7.14-8.93-2.63-3.95-5.85-6.81-8.6-10.41-9.93-13.01-18.48-25.9-26.17-40.42-16.74-31.6-27.83-65.5-33.65-100.79-.17-1.05-.68-1.5-1.29-1.13-.06-.47.07-.98-.02-1.45,1.29-.63.51-2.28.32-3.63-.3-2.07-3.96-29.6-2.89-27.44-.21-.43-.55-1.12-1.36-.75-.04-.47-.07-.98-.02-1.45.82,2.11,1.49-14.49-.76-11.22.19-1.25-.03-2.57-.03-3.83.34.1.65-.32.65-.86v-26.8c0-.54-.31-.96-.65-.86,0-1.01-.04-2.04.03-3.04,2.27,2.9,1.58-12.34.76-10.43.03-.46-.02-.99.02-1.45.45.31.78.03,1.02-.18.6-.52.29-1.47.37-2.35,3.24-38.66,17.73-83.44,36.23-117.44l3.94-7.25c10.96-20.15,24.71-37.83,40.44-54.57,11.57-12.31,24.3-22.64,38.08-32.28,1.94-1.35,3.47-2.89,5.56-3.21ZM468.11,695.63c.99-.83,2.35-2.42,2.35-4.49l-.02-53.54c0-3.51-2.82-5.64-6.1-5.75-4.87-.16-8.41,2.68-11.18,6.39l-17.83,23.92,17.51,26.26c3.43,5.15,10.08,11.57,15.27,7.21Z"/>
        <path class="st0" d="M663.81,799.01c-.18.13,2.72-.13,1.63.54-46.17,32.6-102.37,51.96-158.92,54.27l-9.04.37c-6.4.26-12.99.24-19.31-.09l-13.73-.71c-49.92-2.59-114.63-24.97-157-52.09-16.24-10.4-31.71-21.44-45.04-34.9,3.57.84,5.63,4.44,8.45,6.73l10.92,8.87c4.58,3.72,22.03,16.02,26.9,18.83l13.84,7.98,23.49,11.8c33.54,16.86,81.25,28.59,119.1,31.4l8.8.65c9.51.71,18.87.75,28.37.04l7.35-.55c55.14-4.14,108.63-22.23,154.18-53.13Z"/>
        <path class="st0" d="M296.35,279.53c-.13.74-.17,1.48-.12,2.23-.27.12-.58.47-.79.7-2.1.32-3.63,1.85-5.56,3.21-13.77,9.64-26.51,19.97-38.08,32.28-15.73,16.74-29.48,34.42-40.44,54.57l-3.94,7.25c-18.5,34.01-32.99,78.78-36.23,117.44-.07.88.23,1.83-.37,2.35-.24.2-.57.49-1.02.18,2.42-24.75,6.85-51.01,16.28-74.83l5.92-14.97c13.5-34.12,32.61-65.48,58.06-92.02,14.2-14.81,29.2-27.85,46.28-38.39Z"/>
        <path class="st0" d="M250.61,754.62c-18.07-18.13-31.91-39.77-44.51-62.28-15.68-28.01-28.22-68.3-32.34-99.4.61-.37,1.12.08,1.29,1.13,5.82,35.29,16.91,69.19,33.65,100.79,7.69,14.52,16.24,27.41,26.17,40.42,2.75,3.6,5.97,6.46,8.6,10.41,2.08,3.13,6.23,5.12,7.14,8.93Z"/>
        <path class="st0" d="M173.74,591.49c-2.17-10.4-2.94-21.17-3.93-31.82.81-.37,1.15.32,1.36.75-1.07-2.16,2.59,25.37,2.89,27.44.2,1.35.97,3-.32,3.63Z"/>
        <path class="st3" d="M670.08,794.12c.36.62,1,.99,1.7,1.09-1.55,2.45-4.2,2.81-6.35,4.33,1.09-.67-1.81-.41-1.63-.54l-.36-1.07c2.35-1.21,4.11-3.01,6.63-3.82Z"/>
        <path class="st0" d="M261.56,765.45c-3.67-2.18-6.86-5.63-9.28-9.14,1.44-.22,8.73,7.43,9.28,9.14Z"/>
        <path class="st0" d="M169.78,558.22c.36-3.82-1.34-7.44-.76-11.22,2.26-3.26,1.58,13.33.76,11.22Z"/>
        <path class="st0" d="M169.02,511.62l.76-10.43c.81-1.91,1.5,13.33-.76,10.43Z"/>
      </g>
    </g>
    <path class="st2" d="M193.38,761.09c-.98.03-1.43-.18-1.56-.49-.21-.5,0-.92.4-1.18.36-.24.94.06,1.19.37.2.24-.24.95-.03,1.3Z"/>
  </g>
</svg>